<svg width="11" height="12" viewBox="0 0 11 12" fill="none" xmlns="http://www.w3.org/2000/svg">
<path d="M9.25403 3.79074C9.07857 3.7992 8.91563 3.70612 8.83208 3.55381C7.71664 2.03914 5.64453 1.62874 4.05284 2.61878C2.26479 3.76536 1.66738 6.12198 2.69091 8.00051C3.01259 8.58438 3.48049 9.07093 4.04866 9.41787C5.13068 10.0694 6.46753 10.1244 7.59968 9.56172C8.04669 9.32479 8.43521 8.99055 8.74018 8.58438C8.84462 8.38129 9.04934 8.25013 9.27075 8.23321C9.35849 8.23744 9.44198 8.2586 9.52135 8.29668L10.5992 8.74092C10.6911 8.779 10.7705 8.83823 10.8332 8.91439C10.8917 8.98631 10.9251 9.07516 10.9293 9.16824C10.9293 9.26979 10.8917 9.3671 10.8332 9.45171C10.3277 10.226 9.63836 10.8606 8.82371 11.2964C7.93387 11.7787 6.93125 12.0199 5.92025 11.9987C2.67419 12.0199 0.025475 9.37133 0.000408895 6.0839V5.99505C-0.0121241 4.92886 0.263668 3.88382 0.798411 2.96571C1.31644 2.06453 2.06003 1.31565 2.95406 0.795248C4.78806 -0.241327 7.01482 -0.266714 8.86971 0.731784C9.65929 1.16334 10.3235 1.79375 10.8039 2.56377C10.8624 2.65262 10.8958 2.7584 10.8958 2.86417C10.9 3.06302 10.7663 3.23649 10.5741 3.27457L9.46709 3.73574C9.40025 3.76536 9.32923 3.78228 9.25403 3.78651" fill="white"/>
</svg>
