<svg width="9" height="12" viewBox="0 0 9 12" fill="none" xmlns="http://www.w3.org/2000/svg">
<path d="M8.09895 9.9576C8.31509 9.93133 8.50529 10.0846 8.53123 10.3035C8.53123 10.3385 8.53123 10.3691 8.53123 10.3998V11.5468C8.53987 11.6694 8.50096 11.7919 8.41883 11.8839C8.32805 11.967 8.20701 12.0108 8.08597 11.9977H0.447531C0.326493 12.0064 0.205447 11.9627 0.114668 11.8795C0.0325354 11.7876 -0.0106967 11.665 0.00227166 11.5424V0.453222C-0.00205113 0.330641 0.0368624 0.208062 0.118995 0.116127C0.209774 0.0329468 0.33082 -0.0108329 0.451858 0.00230074H1.84378C2.05992 -0.0195887 2.25445 0.138015 2.28039 0.361287C2.28039 0.387554 2.28039 0.418198 2.28039 0.448843V9.9576H8.09462H8.09895Z" fill="white"/>
</svg>
