<svg width="24" height="28" viewBox="0 0 24 28" fill="none" xmlns="http://www.w3.org/2000/svg">
<path d="M22.3335 15.3911C22.2475 15.275 22.1574 15.163 22.0632 15.0511C22.0551 15.0428 22.0468 15.0304 22.0387 15.0221C22.0264 15.0055 22.0141 14.9889 21.9977 14.9723C21.9814 14.9516 21.965 14.935 21.9486 14.9143C21.9404 14.906 21.9363 14.8977 21.9282 14.8894C21.92 14.8811 21.9159 14.8728 21.9077 14.8645C21.8995 14.8521 21.8872 14.8396 21.879 14.8272C21.8668 14.8147 21.8585 14.8023 21.8462 14.7899C21.8299 14.7691 21.8094 14.7484 21.793 14.7277C21.7685 14.6945 21.7398 14.6613 21.7153 14.6323C21.7071 14.6199 21.6989 14.6116 21.6866 14.5991C21.6825 14.5908 21.6743 14.5867 21.6702 14.5784C21.6539 14.5577 21.6334 14.5328 21.6129 14.5121C21.5883 14.483 21.5638 14.4499 21.5392 14.4208C21.4778 14.3462 21.4164 14.2674 21.3509 14.1969C21.2854 14.114 21.2199 14.0311 21.1503 13.9523C21.1175 13.9109 21.0848 13.8735 21.052 13.8321C20.966 13.7243 20.876 13.6165 20.7859 13.5128C20.7408 13.4631 20.6958 13.4133 20.6508 13.3677C20.618 13.3345 20.5893 13.3013 20.5566 13.2682C19.7214 12.3975 18.6201 11.6926 17.269 11.1826L23.1932 5.79653V1.59218H23.1686V1.55901H23.14V1.52999H23.1154V1.49682H23.0909V1.46779H23.0663V1.43877H23.0458V1.4056H23.0213V1.37657H22.9926V1.3434H22.968V1.31023H22.9435V1.27706H22.9189V1.24389H22.8944V1.21487H22.8657V1.1817H22.8452V1.14853H22.8166V1.11536H22.792V1.08219H22.7715V1.05316H22.747V1.01999H22.7224V0.986821H22.6979V0.95365H22.6733V0.924626H22.6487V0.895602H22.6241V0.862432H22.5996V0.829261H22.5791V0.796091H22.5504V0.76292H22.53V0.72975H22.5013V0.700726H22.4768V0.671702H22.4522V0.638531H22.4276V0.605361H22.403V0.572191H22.3744V0.543166H22.3498V0.509996H22.3253V0.476826H22.3048V0.443655H22.2762V0.410485H22.2516V0.38146H22.227V0.352436H22.2024V0.319266H22.1779V0.286095H22.1533V0.252925H22.1288V0.223901H22.1083V0.19073H22.0837V0.15756H22.0592V0.128536H22.0346V0.0953656H22.0141V0.0663408H21.9854V0.0331704H21.9609V0H1.91197V5.43166H1.94061V5.45654H1.97744V5.48142H2.00613V5.50629H2.03477V5.53117H2.06346V5.55605H2.09619V5.58093H2.12488V5.6058H2.15351V5.63068H2.18215V5.65556H2.21494V5.68044H2.24767V5.70532H2.27636V5.73019H2.30499V5.75507H2.33773V5.77995H2.36232V5.80483H2.39505V5.8297H2.42374V5.85458H2.45648V5.87946H2.48511V5.90434H2.5138V5.92922H2.54244V5.95409H2.57112V5.97897H2.60796V6.00385H2.63664V6.02873H2.66938V6.05361H2.69801V6.07848H2.7267V6.10336H2.75944V6.12824H2.78812V6.15312H2.81676V6.17799H2.8495V6.20287H2.87818V6.22775H2.91092V6.25263H2.9396V6.27751H2.96824V6.30238H3.00098V6.32726H3.02966V6.35214H3.0624V6.37702H3.09108V6.4019H3.11972V6.42677H3.14841V6.45165H3.17705V6.47653H3.20978V6.50141H3.23847V6.52628H3.2671V6.55116H3.29989V6.57604H3.32853V6.60092H3.35716V6.62579H3.38995V6.65067H3.41858V6.67555H11.3612L6.30906 11.4355L7.42265 15.2418H7.44314L7.45129 15.2667H7.47998L7.48817 15.2916H7.50861L7.51681 15.3164H7.5373L7.5455 15.3413H7.56594L7.57413 15.3662H7.59872L7.60687 15.3911H7.62736L7.63555 15.416H7.656L7.66419 15.4408H7.68878L7.69698 15.4657H7.72152L7.72971 15.4906H7.7543L7.76245 15.5155H7.78294L7.79113 15.5403H7.81157L7.81977 15.5652H7.84436L7.85256 15.5901H7.8689L7.87709 15.615H7.90168L7.90983 15.6399H7.93032L7.93852 15.6647H7.96305L7.97125 15.6896H7.99174L7.99994 15.7145H8.02038L8.02857 15.7394H8.04907L8.05726 15.7643H8.0777L8.0859 15.7891H8.11454L8.12273 15.814H8.14322L8.15142 15.8389H8.17596L8.18415 15.8638H8.20464L8.21284 15.8886H8.23328L8.24148 15.9135H8.26607L8.27421 15.9384H8.2988L8.307 15.9633H8.32744L8.33563 15.9882H8.36022L8.36842 16.013H8.38886L8.39706 16.0379H8.42159L8.42979 16.0628H8.45028L8.45848 16.0877H8.47892L8.48711 16.1125H8.5117L8.5199 16.1374H8.54034L8.54854 16.1623H8.57313L8.58127 16.1872H8.60176L8.60996 16.2121H8.6304L8.6386 16.2369H8.65909L8.66728 16.2618H8.68772L8.69592 16.2867H8.72051L8.72865 16.3116H8.74914L8.75734 16.3364H8.77783L8.78598 16.3613H8.81057L8.81876 16.3862H8.8392L8.8474 16.4111H8.86789L8.87609 16.436H8.90063L8.90882 16.4608H8.92931L8.93746 16.4857H11.6928C13.3346 16.4857 14.6692 16.7303 15.6395 17.1823C15.8074 17.4974 15.8975 17.8457 15.8975 18.223V18.2894C15.8975 19.9976 14.2598 21.1918 11.9139 21.1918C9.24453 21.1918 7.17289 20.2713 5.20362 18.2106L4.68371 17.6467L0 21.511L0.585482 22.1744C0.908918 22.5269 1.24872 22.8544 1.60082 23.1654C1.66632 23.2235 1.73183 23.2856 1.80143 23.3437C1.80961 23.352 1.81777 23.3561 1.82187 23.3644C1.83415 23.3727 1.84647 23.3852 1.85875 23.3935C1.87513 23.41 1.8956 23.4266 1.91197 23.4432C1.92016 23.4515 1.92833 23.4598 1.93651 23.4681C1.9447 23.4764 1.95291 23.4847 1.9611 23.493C1.98976 23.5178 2.02251 23.5427 2.05526 23.5717C2.06754 23.58 2.07571 23.5883 2.08799 23.6008C2.10846 23.6174 2.12895 23.6381 2.14942 23.6547C2.15351 23.6588 2.16172 23.6671 2.16991 23.6713C2.20266 23.7003 2.23541 23.7252 2.26816 23.7542C2.27635 23.7625 2.28861 23.7708 2.2968 23.7791C2.30089 23.7791 2.305 23.7874 2.30909 23.7915C2.35003 23.8247 2.391 23.8578 2.43194 23.8952C2.44422 23.9076 2.46059 23.92 2.47287 23.9325C2.49743 23.9532 2.52197 23.9739 2.55063 23.9947C2.56701 24.0071 2.58338 24.0237 2.59976 24.0361C2.60385 24.0403 2.60796 24.0444 2.61615 24.0486C2.63662 24.0652 2.6571 24.0817 2.67348 24.0983C2.68166 24.1066 2.69392 24.1149 2.70211 24.1232C2.7144 24.1356 2.73076 24.1481 2.74304 24.1605C2.7717 24.1854 2.80449 24.2144 2.83315 24.2393C2.83725 24.2434 2.8454 24.2476 2.8495 24.2559C2.86178 24.2642 2.87 24.2766 2.88228 24.2849C2.89047 24.2932 2.89863 24.2973 2.90272 24.3056C2.92319 24.3264 2.94777 24.343 2.96824 24.3595C3.00099 24.3886 3.03374 24.4176 3.0665 24.4425C3.0665 24.4425 3.0747 24.4508 3.07879 24.4508C3.10336 24.4715 3.13199 24.4964 3.15655 24.5171C5.80136 26.8307 9.17494 28 13.2036 28C19.3243 28 23.5985 24.513 23.5985 19.5208V19.4545C23.5985 17.8955 23.1523 16.5272 22.3048 15.3994L22.3335 15.3911ZM4.64272 19.1974C6.79214 21.3659 9.0603 22.3361 11.9712 22.3361C14.8821 22.3361 17.0643 20.6818 17.0643 18.3142V18.2479C17.0643 15.6855 14.5669 14.1596 10.3827 14.1596H8.33154L7.64785 11.8211L15.5618 4.36606H3.07469V1.17755H20.9087V4.00118L12.8023 11.3733L13.9814 11.5392C18.7265 12.2026 21.3427 14.5245 21.3427 18.0779V18.1442C21.3427 22.5766 17.4574 25.6698 11.8935 25.6698C7.67651 25.6698 4.23335 24.3181 1.66224 21.652L4.64272 19.1932V19.1974Z" fill="white"/>
</svg>
