<svg width="9" height="12" viewBox="0 0 9 12" fill="none" xmlns="http://www.w3.org/2000/svg">
<path d="M8.57935 1.93187C8.48882 2.01481 8.36812 2.0541 8.24742 2.04101H2.25562V5.24095H7.51032C7.63102 5.23222 7.75162 5.27587 7.84214 5.35882C7.92836 5.45049 7.96716 5.57273 7.95422 5.69496V6.83874C7.96716 6.96097 7.92405 7.08757 7.84214 7.17488C7.75162 7.25783 7.63102 7.30148 7.51032 7.28839H2.27288V11.5448C2.28581 11.667 2.2427 11.7893 2.16511 11.8809C2.07459 11.9639 1.95388 12.0075 1.83319 11.9988H0.445184C0.324487 12.0075 0.203781 11.9682 0.113259 11.8809C0.0313572 11.7893 -0.00744243 11.667 0.00117878 11.5448V0.451948C-0.00313183 0.329713 0.0399869 0.207476 0.121888 0.115799C0.212411 0.032854 0.333116 -0.0108024 0.453813 0.00229425H8.269C8.38969 -0.00643683 8.51029 0.0372205 8.60081 0.120166C8.68272 0.211842 8.72583 0.334076 8.71289 0.456311V1.60008C8.71721 1.72232 8.67419 1.84019 8.58798 1.9275" fill="white"/>
</svg>
