<svg width="18" height="19" viewBox="0 0 18 19" fill="none" xmlns="http://www.w3.org/2000/svg">
<path d="M8.99592 18.2128C6.60942 18.2128 4.32218 17.2494 2.6388 15.5403C0.951293 13.8313 0.00413605 11.5149 0 9.1022C0.00413605 6.68527 0.955429 4.37307 2.64294 2.66825C4.33045 0.963416 6.61769 0 9.00419 0C11.3907 0 13.6779 0.963417 15.3613 2.67244C17.0488 4.38145 17.996 6.69784 18.0001 9.11057C17.996 11.5275 17.0447 13.8397 15.3572 15.5487C13.6697 17.2535 11.3824 18.2128 8.99592 18.217M9.00419 0.590616C6.77486 0.590616 4.63652 1.48701 3.05654 3.08293C1.48071 4.67885 0.591456 6.84445 0.58732 9.1022C0.58732 11.3599 1.47657 13.5255 3.05241 15.1215C4.62825 16.7174 6.76659 17.618 8.99592 17.618C11.2253 17.618 13.3636 16.7216 14.9436 15.1256C16.5235 13.5297 17.4087 11.3641 17.4169 9.10638C17.4169 6.84864 16.5277 4.68304 14.9518 3.08712C13.376 1.4912 11.2377 0.590616 9.00833 0.590616" fill="white"/>
</svg>
