<svg width="9" height="11" viewBox="0 0 9 11" fill="none" xmlns="http://www.w3.org/2000/svg">
<path d="M8.42257 10.5567C8.45737 10.5963 8.47913 10.6492 8.48783 10.702C8.49653 10.7549 8.48783 10.8122 8.45737 10.8607C8.43127 10.9091 8.39212 10.9488 8.34426 10.9708C8.29641 10.9928 8.23985 11.0061 8.18765 10.9972H7.13483C7.10002 10.9972 7.06957 10.984 7.03911 10.9708C7.00866 10.9532 6.98256 10.9312 6.96516 10.9003L4.32005 6.8865H1.47483V10.7725C1.47483 10.8342 1.44872 10.8871 1.40956 10.9312C1.37041 10.9708 1.3095 10.9972 1.25295 10.9972H0.22188C0.160973 10.9972 0.104416 10.9708 0.0652615 10.9312C0.026107 10.8915 0 10.8342 0 10.7725V0.224704C0.0043505 0.163021 0.0304593 0.110149 0.0739644 0.0660899C0.113119 0.0264364 0.169676 0 0.230583 0H4.2809C7.11307 0 8.51393 1.50243 8.51393 3.44545C8.53134 4.2209 8.27031 4.97432 7.78305 5.56912C7.2958 6.16833 6.60842 6.56927 5.85143 6.70585L8.43127 10.5522L8.42257 10.5567ZM3.98071 5.62639C6.20817 5.62639 6.95645 4.70115 6.9608 3.44545C6.9608 2.19416 6.21252 1.26451 3.98506 1.26451H1.47917V5.62639H3.98506H3.98071Z" fill="white"/>
</svg>
