<svg width="10" height="12" viewBox="0 0 10 12" fill="none" xmlns="http://www.w3.org/2000/svg">
<path d="M9.85324 11.7433C9.85324 11.8177 9.81868 11.8834 9.75819 11.9227C9.67609 11.9709 9.58097 11.9928 9.48591 11.9884H7.54578C7.34269 11.9884 7.14825 11.9009 7.0143 11.7433L2.26552 6.53579V11.5464C2.27848 11.6689 2.23526 11.7958 2.14884 11.8834C2.0581 11.9665 1.9371 12.0103 1.81611 11.9971H0.437736C0.221686 12.0234 0.0272359 11.8659 0.00130988 11.6471C0.00130988 11.6164 0.00130988 11.5858 0.00130988 11.5595V0.444285C-0.0159742 0.225481 0.139616 0.0285563 0.359988 0.00229979C0.390235 0.00229979 0.41614 0.00229979 0.446387 0.00229979H1.83774C1.95873 -0.0108285 2.07972 0.0329333 2.17047 0.116079C2.25256 0.207977 2.29578 0.330507 2.28282 0.453037V6.08943L6.77663 0.264866C6.89761 0.0941985 7.09637 -0.00645237 7.3081 0.00229979H9.08841C9.33471 0.00229979 9.45996 0.0898224 9.45996 0.264866C9.45996 0.369892 9.41674 0.466166 9.34761 0.540559L4.8884 6.20321L9.71926 11.4414C9.80136 11.5158 9.85757 11.6252 9.86189 11.739" fill="white"/>
</svg>
