<svg width="11" height="11" viewBox="0 0 11 11" fill="none" xmlns="http://www.w3.org/2000/svg">
<path d="M10.9476 5.55595C10.9348 6.64112 10.6061 7.70035 9.99564 8.59529C9.38944 9.49456 8.52711 10.1906 7.52817 10.597C6.52495 11.0034 5.42783 11.1072 4.36912 10.8867C3.31041 10.6705 2.34135 10.1387 1.58147 9.36918C0.821587 8.59529 0.305039 7.61388 0.100128 6.55033C-0.104784 5.48245 0.00621017 4.37998 0.420302 3.38128C0.834394 2.37825 1.53878 1.52222 2.43953 0.921266C3.34029 0.320314 4.39473 0.000381694 5.47478 0.000381694C6.20051 -0.0082651 6.92197 0.130085 7.59647 0.406782C8.2667 0.683479 8.87717 1.0942 9.38944 1.61301C9.90172 2.13182 10.303 2.75006 10.5677 3.42884C10.8366 4.10761 10.9647 4.83394 10.9476 5.56459M9.42786 5.55162C9.42786 2.9965 7.7715 1.23255 5.47478 1.23255C3.17807 1.23255 1.51743 2.99217 1.51743 5.5473C1.51743 8.10243 3.1738 9.86637 5.47052 9.86637C7.76723 9.86637 9.42786 8.10675 9.42786 5.55162Z" fill="white"/>
</svg>
