<svg width="154" height="24" viewBox="0 0 154 24" fill="none" xmlns="http://www.w3.org/2000/svg">
<mask id="mask0_130_1221" style="mask-type:luminance" maskUnits="userSpaceOnUse" x="-1" y="0" width="155" height="24">
<path d="M154 0H-0.398804V23.2389H154V0Z" fill="white"/>
</mask>
<g mask="url(#mask0_130_1221)">
<path d="M25.5419 18.319L21.3065 22.9236C21.2123 23.0232 21.1017 23.102 20.9788 23.1559C20.8559 23.2098 20.7208 23.2389 20.5856 23.2389H0.510521C0.412214 23.2472 0.313906 23.2223 0.227888 23.1683C0.14187 23.1144 0.0763229 23.0397 0.0394579 22.9485C-0.00150325 22.8572 -0.00968598 22.7535 0.0107946 22.6581C0.0312752 22.5585 0.0804185 22.4714 0.154149 22.4009L4.38544 17.8004C4.47965 17.7009 4.59024 17.6179 4.71313 17.564C4.83601 17.51 4.97118 17.481 5.10635 17.481H25.1814C25.2797 17.4727 25.378 17.4976 25.464 17.5474C25.5501 17.5972 25.6156 17.676 25.6566 17.7672C25.6975 17.8585 25.7057 17.9622 25.6852 18.0618C25.6647 18.1613 25.6156 18.2484 25.5419 18.319ZM21.3065 9.05576C21.2123 8.9562 21.1017 8.87739 20.9788 8.82346C20.8559 8.76953 20.7208 8.74049 20.5856 8.74049H0.510521C0.412214 8.73219 0.313906 8.75708 0.227888 8.81101C0.14187 8.86494 0.0763229 8.93961 0.0394579 9.03087C-0.00150325 9.12214 -0.00968598 9.22585 0.0107946 9.32126C0.0312752 9.42082 0.0804185 9.50793 0.154149 9.57845L4.38544 14.1789C4.47965 14.2785 4.59024 14.3573 4.71313 14.4112C4.83601 14.4652 4.97118 14.4942 5.10635 14.4942H25.1814C25.2797 14.5025 25.378 14.4776 25.464 14.4278C25.5501 14.3781 25.6156 14.2992 25.6566 14.208C25.6975 14.1167 25.7057 14.013 25.6852 13.9134C25.6647 13.8139 25.6156 13.7268 25.5419 13.6562L21.3065 9.05576ZM0.510521 5.75785H20.5856C20.7208 5.75785 20.8559 5.72881 20.9788 5.67488C21.1017 5.62096 21.2164 5.53799 21.3065 5.43843L25.5419 0.837944C25.6156 0.771571 25.6647 0.680309 25.6852 0.580749C25.7057 0.481189 25.6934 0.381629 25.6566 0.286217C25.6156 0.194954 25.5501 0.116137 25.464 0.0663569C25.378 0.0165771 25.2797 -0.00831279 25.1814 -1.61534e-05H5.10635C4.97118 -1.61534e-05 4.83601 0.0290224 4.71313 0.0829505C4.59024 0.136879 4.47556 0.215696 4.38544 0.315255L0.154149 4.91989C0.0804185 4.98626 0.0312752 5.07753 0.0107946 5.17709C-0.00968598 5.27664 0.00259286 5.37621 0.0394579 5.46747C0.080419 5.55873 0.145966 5.63755 0.227888 5.68733C0.30981 5.73711 0.412214 5.762 0.510521 5.75785Z" fill="white"/>
<path d="M50.0161 9.82735H39.2761V6.2432H52.8097V2.65906H39.2433C38.7805 2.65906 38.3176 2.74617 37.8916 2.92455C37.4615 3.10293 37.0724 3.36427 36.7406 3.69199C36.4088 4.02385 36.1467 4.4138 35.9706 4.84937C35.7903 5.28079 35.6961 5.74541 35.6961 6.21831V9.84809C35.6961 10.3169 35.7944 10.7815 35.9706 11.217C36.1508 11.6485 36.4129 12.0426 36.7406 12.3744C37.0724 12.7063 37.4615 12.9676 37.8916 13.1419C38.3217 13.3202 38.7805 13.4074 39.2433 13.4074H49.9956V16.9915H35.9337V20.5756H50.0079C50.4708 20.5756 50.9296 20.4885 51.3597 20.3102C51.7897 20.1318 52.1789 19.8704 52.5107 19.5427C52.8384 19.2108 53.1005 18.8209 53.2807 18.3853C53.4609 17.9539 53.5552 17.4893 53.5552 17.0164V13.3866C53.5552 12.4408 53.1783 11.5365 52.5147 10.8686C51.8512 10.2007 50.9582 9.82735 50.0243 9.82735H50.0161Z" fill="white"/>
<path d="M70.8244 2.6632H60.0434C59.5806 2.6632 59.1177 2.75032 58.6876 2.92455C58.2575 3.10293 57.8643 3.36427 57.5325 3.69199C57.2007 4.02385 56.9386 4.41794 56.7584 4.84937C56.5781 5.28494 56.4839 5.74955 56.4798 6.21831V17.0122C56.4798 17.481 56.5781 17.9456 56.7543 18.3812C56.9304 18.8168 57.1966 19.2067 57.5243 19.5386C57.852 19.8704 58.2452 20.1318 58.6753 20.306C59.1054 20.4802 59.5642 20.5715 60.027 20.5715H70.8162C71.2791 20.5715 71.7378 20.4844 72.1679 20.306C72.598 20.1276 72.9872 19.8663 73.3189 19.5386C73.6466 19.2067 73.9088 18.8168 74.089 18.3812C74.2692 17.9498 74.3634 17.4851 74.3634 17.0122V6.21831C74.3634 5.74955 74.2692 5.28494 74.089 4.84937C73.9088 4.41794 73.6466 4.02385 73.3189 3.69199C72.9913 3.36012 72.598 3.09878 72.1679 2.92455C71.7378 2.74617 71.2791 2.65906 70.8162 2.65906L70.8244 2.6632ZM70.7998 16.9915H60.068V6.2432H70.7957V16.9915H70.7998Z" fill="white"/>
<path d="M108.586 2.6632H98.0718C97.6089 2.6632 97.1501 2.75032 96.72 2.92869C96.29 3.10707 95.9008 3.36841 95.569 3.69613C95.2373 4.02385 94.9751 4.41794 94.799 4.85351C94.6187 5.28494 94.5245 5.74955 94.5245 6.22246V20.5756H98.1004V14.6892H108.595V20.5756H112.171V6.22246C112.171 5.74955 112.076 5.28494 111.892 4.84936C111.712 4.41379 111.446 4.0197 111.114 3.68783C110.782 3.35597 110.389 3.09463 109.955 2.9204C109.52 2.74617 109.058 2.65905 108.595 2.6632H108.586ZM108.586 11.105H98.1168V6.26394H108.586V11.105Z" fill="white"/>
<path d="M150.449 2.66321H139.934C139.471 2.66321 139.013 2.75033 138.582 2.9287C138.152 3.10708 137.763 3.36843 137.431 3.69614C137.1 4.02801 136.837 4.41795 136.661 4.85352C136.481 5.28495 136.387 5.74956 136.387 6.22247V20.5756H139.963V14.6892H150.432V20.5756H154.008V6.22247C154.008 5.75371 153.91 5.2891 153.734 4.85352C153.554 4.4221 153.292 4.02801 152.964 3.69614C152.632 3.36428 152.243 3.10293 151.813 2.9287C151.383 2.75033 150.924 2.66321 150.461 2.66321H150.449ZM150.424 11.105H139.955V6.26395H150.424V11.105Z" fill="white"/>
<path d="M129.62 16.9915H128.186L123.066 4.15245C122.89 3.71273 122.587 3.33108 122.194 3.06559C121.805 2.8001 121.342 2.65906 120.871 2.65906H117.667C117.045 2.65906 116.443 2.90381 116 3.34768C115.558 3.79155 115.304 4.3972 115.3 5.02775V20.5673H118.876V6.23906H120.309L125.434 19.0781C125.614 19.5178 125.921 19.8953 126.31 20.1608C126.699 20.4263 127.162 20.5673 127.633 20.5715H130.812C131.123 20.5756 131.43 20.5176 131.721 20.4014C132.012 20.2853 132.274 20.111 132.495 19.8912C132.717 19.6713 132.893 19.4058 133.016 19.1154C133.139 18.8251 133.2 18.5139 133.2 18.1987V2.65906H129.616V16.9873L129.62 16.9915Z" fill="white"/>
<path d="M81.1261 2.66321H77.5502V17.0164C77.5502 17.4852 77.6485 17.9498 77.8246 18.3853C78.0049 18.8168 78.267 19.2109 78.5947 19.5427C78.9224 19.8746 79.3156 20.1359 79.7457 20.3102C80.1758 20.4885 80.6346 20.5756 81.0974 20.5756H91.8538V16.9915H81.122V2.66321H81.1261Z" fill="white"/>
</g>
</svg>
