<svg width="7" height="8" viewBox="0 0 7 8" fill="none" xmlns="http://www.w3.org/2000/svg">
<path d="M6.94626 1.31172V1.28665H6.92149V1.26159H6.90502V1.23652H6.88438V1.21146H6.85966V1.18639H6.84314V1.15715H6.82662V1.13209H6.80603V1.10284H6.78539V1.07778H6.76474V1.05272H6.74828V1.02347H6.72763V0.998407H6.70291V0.973344H6.68639V0.94828H6.66575V0.919038H6.64928V0.893971H6.63277V0.868908H6.608V0.839666H6.59153V0.810424H6.57088V0.78536H6.55442V0.760294H6.53378V0.73523H6.509V0.710166H6.49254V0.6851H6.47189V0.655858H6.4513V0.630794H6.43478V0.601552H6.41414V0.57231H6.39354V0.547243H6.3729V0.52218H6.35226V0.492938H6.33579V0.467874H6.31102V0.442807H6.29042V0.417744H6.27391V0.39268H6.25739V0.367617H6.2368V0.34255H6.21615V0.317486H6.19551V0.292423H6.17491V0.267356H6.15427V0.238114H6.13368V0.21305H6.11303V0.183808H6.09652V0.158745H6.07592V0.133678H6.05528V0.108614H6.03468V0.0793723H5.97693V0H0V6.05311H0.0783483V6.11159H0.103122V6.13248H0.131974V6.15337H0.160876V6.17425H0.185599V6.19514H0.210372V6.21603H0.239224V6.23274H0.263998V6.25363H0.292849V6.27451H0.321701V6.29122H0.346475V6.31211H0.375327V6.333H0.4001V6.35388H0.424823V6.37477H0.453725V6.39566H0.482577V6.41655H0.507351V6.43743H0.536203V6.45832H0.565105V6.47921H0.589828V6.50009H0.61873V6.52098H0.643453V6.54187H0.672355V6.55858H0.701207V6.57946H0.725981V6.60035H0.754833V6.62124H0.783684V6.64213H0.808458V6.66302H0.83731V6.6839H0.862083V6.70479H0.890935V6.72567H0.915708V6.74238H0.940431V6.76327H0.969334V6.78416H0.994057V6.80505H1.02709V6.82594H1.05181V6.84682H1.07658V6.86771H1.10544V6.88859H1.13434V6.90948H1.16319V6.93037H1.18796V6.95126H1.21269V6.97214H1.24159V6.99303H1.27044V7.01392H1.29521V7.03481H1.32407V7.05569H1.34879V7.07658H6.99989V1.35349H6.98337L6.94626 1.31172ZM4.90855 4.97115H1.07246V1.08613H4.90855V4.97115Z" fill="white"/>
</svg>
