<svg width="9" height="12" viewBox="0 0 9 12" fill="none" xmlns="http://www.w3.org/2000/svg">
<path d="M8.58368 1.93328C8.49289 2.01647 8.37194 2.05588 8.25089 2.04274H2.24164V5.03747H7.55049C7.67154 5.02433 7.7926 5.06812 7.88338 5.15568C7.96552 5.24325 8.00876 5.37021 7.99579 5.49281V6.63991C8.00876 6.7625 7.96552 6.88509 7.87905 6.97703C7.79259 7.0646 7.66721 7.104 7.54616 7.09087H2.25895V9.95425H8.2681C8.38914 9.94549 8.5102 9.98927 8.60099 10.0725C8.68313 10.1644 8.72636 10.287 8.71339 10.4096V11.5567C8.73933 11.7756 8.58368 11.9726 8.36752 11.9989C8.33726 11.9989 8.30702 11.9989 8.28108 11.9989H0.44757C0.326521 12.0077 0.201141 11.9639 0.114678 11.8807C0.0325382 11.7887 -0.0106976 11.6661 0.00227185 11.5436V0.453431C-0.0020513 0.33084 0.0368698 0.20825 0.123333 0.116307C0.209796 0.0287418 0.335176 -0.0106634 0.456225 0.00247135H8.28541C8.50156 -0.0194199 8.69611 0.138196 8.71772 0.357109C8.72204 0.387757 8.71772 0.418407 8.71772 0.444676V1.59178C8.72637 1.71875 8.6788 1.84134 8.59233 1.92891" fill="white"/>
</svg>
