<svg width="8" height="11" viewBox="0 0 8 11" fill="none" xmlns="http://www.w3.org/2000/svg">
<path d="M7.99159 9.56997V10.3484C7.99159 10.378 7.99159 10.4077 7.97906 10.433C7.9707 10.4584 7.95399 10.4838 7.9331 10.505C7.91221 10.5261 7.88715 10.543 7.86209 10.5515C7.83702 10.56 7.8036 10.5684 7.77853 10.5642H0.213057C0.154572 10.56 0.100258 10.5388 0.0626602 10.4965C0.0250625 10.4542 0 10.3992 0 10.3442V0.215768C0.00417752 0.156537 0.0292482 0.10577 0.0710234 0.063462C0.112799 0.0253852 0.162923 0 0.221408 0H7.61562C7.64486 0 7.67409 0.00423115 7.69916 0.0169234C7.72422 0.0253849 7.74929 0.0423082 7.77018 0.063462C7.79107 0.0846158 7.80777 0.11 7.81613 0.135384C7.82448 0.160769 7.83284 0.190384 7.82866 0.22V0.998459C7.82866 1.02807 7.82866 1.05769 7.81613 1.08307C7.80777 1.10846 7.79107 1.13384 7.77018 1.155C7.74929 1.17615 7.72422 1.18884 7.69916 1.20154C7.67409 1.21 7.64068 1.21846 7.61562 1.21423H1.42453V4.51845H6.92631C6.95556 4.51845 6.98481 4.52268 7.00987 4.53537C7.03494 4.54383 7.06001 4.56076 7.08089 4.58191C7.10178 4.60306 7.11431 4.62845 7.12684 4.65383C7.1352 4.67922 7.14355 4.70883 7.13937 4.73845V5.52114C7.13937 5.55075 7.13937 5.58037 7.12684 5.60575C7.11849 5.63114 7.10178 5.65652 7.08089 5.67768C7.06001 5.69883 7.03494 5.71575 7.00987 5.72422C6.98481 5.73268 6.95556 5.73691 6.92631 5.73691H1.42453V9.34997H7.78689C7.81614 9.34997 7.84537 9.35421 7.87044 9.3669C7.8955 9.37536 7.92057 9.39228 7.94146 9.41343C7.96235 9.43459 7.97905 9.45997 7.98741 9.48536C7.99576 9.51074 7.99994 9.54036 7.99994 9.56997" fill="white"/>
</svg>
