<svg width="10" height="11" viewBox="0 0 10 11" fill="none" xmlns="http://www.w3.org/2000/svg">
<path d="M9.76975 0.23348V10.7753C9.7654 10.837 9.73931 10.8943 9.69581 10.9339C9.65666 10.9736 9.59576 11 9.53921 11H8.5083C8.4474 11 8.39085 10.9736 8.3517 10.9339C8.31255 10.8899 8.28645 10.837 8.28645 10.7753V5.96916H1.47895V10.7709C1.47895 10.8326 1.45284 10.8899 1.40935 10.9295C1.36585 10.9692 1.3093 10.9956 1.25275 10.9956H0.22184C0.160942 10.9956 0.104394 10.9692 0.0652451 10.9295C0.0217466 10.8899 0 10.8326 0 10.7709V0.224669C0.00434985 0.162995 0.0304481 0.110131 0.0739466 0.0660783C0.113095 0.0264307 0.169644 0 0.230541 0H1.26145C1.32235 0 1.3789 0.0264307 1.41805 0.0660783C1.4572 0.105726 1.4833 0.162995 1.4833 0.224669V4.70484H8.29081V0.224669C8.29081 0.1674 8.31691 0.110131 8.36041 0.0660783C8.4039 0.0220254 8.46045 0 8.517 0H9.54791C9.6088 0 9.66536 0.0264307 9.70451 0.0660783C9.74801 0.105726 9.76975 0.162995 9.76975 0.224669" fill="white"/>
</svg>
