<svg width="23" height="23" viewBox="0 0 23 23" fill="none" xmlns="http://www.w3.org/2000/svg">
<path d="M11.3594 23C8.34874 23 5.4623 21.7837 3.32956 19.628C1.20096 17.4723 0.00414124 14.5449 0 11.4958C0.00414124 8.44676 1.2051 5.52353 3.33784 3.3678C5.47058 1.21207 8.35703 0.00419402 11.3677 0C14.3784 0 17.2648 1.21627 19.3976 3.37199C21.5262 5.52772 22.7271 8.45515 22.7271 11.5042C22.723 14.5533 21.522 17.4765 19.3893 19.6322C17.2566 21.7879 14.3701 22.9958 11.3594 23ZM11.3718 0.830416C8.57651 0.830416 5.89713 1.95441 3.92176 3.95496C1.94224 5.95551 0.83239 8.66485 0.824107 11.4958C0.824107 14.3226 1.9381 17.0361 3.91347 19.0367C5.88885 21.0372 8.56823 22.1612 11.3636 22.1654C14.1548 22.1654 16.8383 21.0414 18.8137 19.0409C20.7932 17.0403 21.903 14.331 21.9113 11.5C21.9113 8.67323 20.7973 5.9597 18.8219 3.95916C16.8466 1.95861 14.1672 0.83461 11.376 0.830416H11.3718Z" fill="white"/>
</svg>
