<svg width="12" height="12" viewBox="0 0 12 12" fill="none" xmlns="http://www.w3.org/2000/svg">
<path d="M1.9099 11.982H0.388859C0.289473 11.9864 0.190125 11.9602 0.103703 11.8989C0.0388859 11.8507 0 11.7676 0 11.6845C0.00864225 11.6057 0.0302057 11.5269 0.0647747 11.4569L5.66061 0.262571C5.74271 0.0875233 5.84651 0 5.9675 0C6.08849 0 6.18786 0.0875233 6.27428 0.262571L11.8615 11.4788C11.896 11.5532 11.9176 11.6276 11.9262 11.7063C11.9262 11.7895 11.8874 11.8683 11.8182 11.9208C11.7361 11.9777 11.6368 12.0039 11.5374 11.9995H10.0163C9.79164 11.9995 9.58858 11.8683 9.50215 11.6626L8.74596 10.109H3.17175L2.42842 11.6582C2.342 11.8683 2.1346 11.9995 1.9099 11.982ZM4.26922 8.10472H7.64837L5.98048 4.35869L4.26922 8.10472Z" fill="white"/>
</svg>
