<svg width="158" height="41" viewBox="0 0 158 41" fill="none" xmlns="http://www.w3.org/2000/svg">
<path fill-rule="evenodd" clip-rule="evenodd" d="M68.2038 16.5483H75.155C75.7705 16.5483 76.263 16.0039 76.1891 15.368C76.1276 14.8361 75.6598 14.4413 75.1304 14.4413H66.4885C65.9181 14.4413 65.4463 14.915 65.4463 15.4969V26.0317C65.4463 26.6094 65.914 27.0873 66.4885 27.0873H75.1591C75.7747 27.0873 76.2671 26.5429 76.1932 25.9071C76.1317 25.3751 75.6639 24.9803 75.1345 24.9803H68.212C67.8386 24.9803 67.5349 24.6728 67.5349 24.2946V22.5076C67.5349 22.1295 67.8386 21.8219 68.212 21.8219H73.4316C74.0471 21.8219 74.5395 21.2775 74.4657 20.6417C74.4041 20.1098 73.9363 19.715 73.4069 19.715H68.2161C67.8427 19.715 67.539 19.4074 67.539 19.0293V17.2423C67.539 16.8641 67.8427 16.5566 68.2161 16.5566M56.2422 16.5483C57.4034 16.5483 58.376 16.968 59.172 17.795C59.3608 17.9862 59.6234 18.0942 59.9188 18.0942C60.4892 18.0942 60.9611 17.6205 60.9611 17.0386C60.9611 16.7394 60.8216 16.461 60.5262 16.195C59.2952 15.0189 57.8548 14.4371 56.2422 14.4371C54.5269 14.4371 53.0496 15.0522 51.8186 16.2989C50.604 17.529 49.9967 19.0209 49.9967 20.7581C49.9967 22.4952 50.604 23.9912 51.8186 25.238C53.0496 26.4681 54.5228 27.0831 56.2422 27.0831C57.9615 27.0831 59.4346 26.4681 60.6452 25.238C61.0596 24.8182 61.0596 24.1492 60.6452 23.7461C60.2471 23.3263 59.5865 23.3263 59.172 23.7461C58.3554 24.5731 57.387 24.9762 56.2422 24.9762C55.0973 24.9762 54.1084 24.5731 53.2959 23.7461C52.4793 22.9191 52.0812 21.9217 52.0812 20.7622C52.0812 19.6028 52.4793 18.6178 53.2959 17.795C54.1125 16.968 55.0973 16.5483 56.2422 16.5483ZM90.145 24.9762H83.2225C82.849 24.9762 82.5454 24.6686 82.5454 24.2905V15.5218C82.5454 14.9857 82.1597 14.5119 81.6303 14.4496C81.0025 14.3748 80.4649 14.8735 80.4649 15.4969V26.0317C80.4649 26.6094 80.9328 27.0873 81.5072 27.0873H90.1778C90.7933 27.0873 91.2858 26.5429 91.2119 25.9071C91.1504 25.3751 90.6826 24.9803 90.1532 24.9803M133.921 14.4413H123.543C122.928 14.4413 122.435 14.9857 122.509 15.6215C122.571 16.1535 123.038 16.5483 123.568 16.5483H127.023C127.396 16.5483 127.7 16.8558 127.7 17.234V26.0317C127.7 26.6551 128.238 27.1538 128.865 27.079C129.391 27.0166 129.78 26.5429 129.78 26.0068V17.2381C129.78 16.8599 130.084 16.5524 130.457 16.5524H133.941C134.557 16.5524 135.049 16.008 134.975 15.3722C134.914 14.8402 134.446 14.4454 133.917 14.4454M139.419 14.4413C138.849 14.4413 138.377 14.915 138.377 15.4969V26.0317C138.377 26.6094 138.845 27.0873 139.419 27.0873C139.994 27.0873 140.462 26.6135 140.462 26.0317V15.4969C140.462 14.9192 139.994 14.4413 139.419 14.4413ZM118.603 20.6375C117.651 20.0225 116.366 19.7067 114.754 19.7067C112.62 19.7067 111.545 19.1789 111.545 18.1275C111.545 17.076 112.62 16.5483 114.754 16.5483C115.931 16.5483 117.06 16.7768 118.135 17.2173C118.758 17.4085 119.193 17.1841 119.436 16.569C119.645 16.0246 119.366 15.4969 118.795 15.235C117.597 14.7073 116.264 14.4454 114.754 14.4454C113.243 14.4454 111.91 14.7779 110.921 15.4304C109.948 16.0787 109.464 16.9929 109.464 18.1358C109.464 19.3493 109.948 20.2801 110.904 20.891C111.856 21.5061 113.141 21.8219 114.754 21.8219C116.887 21.8219 117.962 22.3497 117.962 23.4011C117.962 24.4525 116.887 24.9803 114.754 24.9803H114.232C113.157 24.9803 112.029 24.7518 110.868 24.3112C110.33 24.1201 109.776 24.3653 109.55 24.9429C109.341 25.4873 109.653 26.119 110.19 26.3143C111.389 26.8255 112.722 27.0873 114.232 27.0873H114.754C116.333 27.0873 117.597 26.7548 118.57 26.1024C119.559 25.4541 120.043 24.5398 120.043 23.397C120.043 22.1835 119.559 21.2526 118.603 20.6417M97.3507 16.5483H104.306C104.922 16.5483 105.414 16.0039 105.34 15.368C105.279 14.8361 104.811 14.4413 104.281 14.4413H95.6396C95.0692 14.4413 94.5973 14.915 94.5973 15.4969V26.0317C94.5973 26.6094 95.0651 27.0873 95.6396 27.0873H104.31C104.926 27.0873 105.418 26.5429 105.344 25.9071C105.283 25.3751 104.815 24.9803 104.286 24.9803H97.3589C96.9855 24.9803 96.6819 24.6728 96.6819 24.2946V22.5035C96.6819 22.1253 96.9855 21.8178 97.3589 21.8178H102.579C103.194 21.8178 103.686 21.2734 103.613 20.6375C103.551 20.1056 103.083 19.7108 102.554 19.7108H97.363C96.9896 19.7108 96.686 19.4033 96.686 19.0251V17.234C96.686 16.8558 96.9896 16.5483 97.363 16.5483M38.6547 20.9783C38.6547 21.103 38.4823 21.1362 38.4331 21.0199C38.4126 20.97 38.3921 20.9201 38.3675 20.8703C38.3264 20.7788 38.3387 20.6708 38.4003 20.5877C38.4126 20.571 38.4372 20.5378 38.4659 20.4962C38.548 20.3882 38.6629 20.4048 38.6629 20.5253C38.6629 20.6833 38.6629 20.8162 38.6547 20.9742M37.7601 18.5015C37.6206 18.755 37.2677 18.7633 37.1159 18.5223C37.0913 18.4849 37.0666 18.4475 37.042 18.41C36.4921 17.554 35.8561 16.7103 35.1462 15.8917C34.9739 15.6922 35.1134 15.3763 35.3801 15.3763H35.3883C37.0461 15.3763 37.916 15.7919 38.1787 16.2989C38.4003 16.7228 38.3305 17.4625 37.7601 18.5056M37.3908 27.2785C37.3006 27.507 37.2103 27.7356 37.1118 27.96C37.0954 27.9891 37.0831 28.0223 37.0666 28.0514C36.4552 29.24 35.4335 30.175 34.067 30.8275C33.7592 30.9729 33.4228 30.6903 33.5171 30.3579C33.9726 28.7122 34.3132 26.9252 34.5389 25.0551C34.5799 24.706 34.7523 24.386 35.0149 24.1575C35.5771 23.6629 36.1023 23.1726 36.5865 22.6822H36.5906C36.8286 22.437 37.2349 22.5409 37.3293 22.865C37.8053 24.4733 37.834 25.9694 37.3949 27.2743M33.6731 33.2212C33.5336 33.3708 33.3899 33.5204 33.2463 33.6659C32.996 33.9194 32.7375 34.1687 32.4708 34.4056C32.3025 34.5552 32.0522 34.3682 32.1466 34.1646C32.1753 34.1064 32.1999 34.0482 32.2246 33.99C32.3354 33.7407 32.442 33.4872 32.5446 33.2295C32.5692 33.1672 32.6226 33.1215 32.6841 33.1048C32.9468 33.0383 33.2012 32.9635 33.4515 32.8804C33.6526 32.8139 33.8126 33.0633 33.6649 33.2212M30.9402 31.7334C30.3862 31.8124 29.8076 31.8664 29.2003 31.8872C27.7189 31.9412 26.1514 31.8082 24.5428 31.509C24.3459 31.4716 24.3089 31.2057 24.4854 31.1142C24.8383 30.9355 25.1871 30.7485 25.54 30.5615C28.0021 29.24 30.3 27.7938 32.3107 26.3143C32.4625 26.2021 32.6677 26.3351 32.639 26.5221C32.36 28.2218 31.9742 29.8176 31.49 31.268C31.4079 31.5132 31.1946 31.696 30.9402 31.7334ZM30.3739 33.9983C29.0526 36.6289 27.4276 38.1042 25.8519 38.0751C24.1366 38.046 22.4296 36.2383 21.1657 33.1173C21.0836 32.9178 21.178 32.6893 21.3709 32.602C21.3832 32.5978 21.3996 32.5895 21.4119 32.5854C21.494 32.548 21.5884 32.5438 21.6745 32.5687C24.0422 33.242 26.373 33.5911 28.5561 33.5911C28.7941 33.5911 29.0279 33.5911 29.2618 33.5786C29.5368 33.5703 29.8035 33.5537 30.0702 33.5329C30.3164 33.5121 30.4847 33.7739 30.3739 33.9983ZM22.5527 38.9977C21.7689 39.1016 20.9728 39.1515 20.1645 39.1515C16.5698 39.1515 13.1311 38.1209 10.1766 36.1926C9.97143 36.0596 10.0617 35.7396 10.2997 35.7313C10.349 35.7313 10.3982 35.7271 10.4392 35.723C11.1902 35.6731 12.0109 35.5609 12.9054 35.3864C14.8012 35.0165 16.9104 34.3848 19.1181 33.5287C19.315 33.4539 19.5366 33.5537 19.6187 33.749C20.4722 35.856 21.5268 37.4518 22.7086 38.4658C22.9056 38.632 22.8071 38.9562 22.5527 38.9894M11.8549 25.8738C13.484 24.5315 15.3962 23.1892 17.489 21.9175C17.5341 24.6312 17.8296 27.2369 18.3466 29.5891C17.5711 29.2524 16.7955 28.8826 16.0282 28.4795C14.5427 27.6982 13.1434 26.8213 11.8549 25.8697M6.78713 33.1464C6.3973 32.4025 6.90203 30.682 9.45438 28.0681C9.72111 27.7938 9.69651 27.3449 9.39695 27.1081C9.29437 27.025 9.19179 26.946 9.0933 26.8629C8.83889 26.6551 8.46957 26.6759 8.23977 26.9086C8.19053 26.9585 8.1495 27 8.14129 27.0083C6.86512 28.334 5.97056 29.5641 5.46993 30.6696C5.32631 30.9812 4.89953 31.0145 4.71077 30.7277C2.7288 27.694 1.66601 24.1409 1.66601 20.4214C1.66601 19.0916 1.80141 17.7825 2.06814 16.5109C2.10917 16.3197 2.37591 16.3072 2.43335 16.4942C2.81908 17.7784 3.44281 19.1041 4.30454 20.4464C5.46582 22.2541 7.00051 23.9912 8.81424 25.5829C9.43387 26.1273 10.0904 26.6509 10.7716 27.1621C12.1545 28.1886 13.6605 29.1402 15.2608 29.9797C15.9707 30.3537 16.6601 30.7111 17.3659 31.0311C17.7598 31.2098 18.2071 31.2264 18.6092 31.0644C18.9416 30.9314 19.2781 30.7942 19.6146 30.6529C19.9839 30.4992 20.1809 30.0919 20.0824 29.7013C20.0701 29.6514 20.0619 29.614 20.0537 29.5891C19.4956 27.2161 19.1878 24.544 19.1509 21.743C19.1509 21.7097 19.1509 21.6765 19.1509 21.6432C19.1509 21.4895 19.1509 21.3357 19.1509 21.1819C19.1509 21.1321 19.1509 21.049 19.1509 21.0032C19.1509 20.9825 19.1509 20.9658 19.1509 20.9451C19.1509 20.7705 19.1509 20.596 19.155 20.4173C19.1632 19.9352 19.1796 19.4615 19.2042 18.9877C19.3766 15.6091 19.9429 12.4382 20.8415 9.76605C20.9236 9.52086 20.7964 9.25074 20.5502 9.16762C20.3122 9.08451 20.0742 9.00555 19.8362 8.93075C19.5982 8.85594 19.3396 8.98477 19.2576 9.2258C18.281 12.1265 17.6819 15.5633 17.5218 19.2038C17.5013 19.6651 17.2551 20.0848 16.8612 20.3217C14.7315 21.5975 12.7782 22.9523 11.0876 24.3196C10.7347 24.6021 10.234 24.5938 9.89346 24.2946C8.20283 22.8069 6.77483 21.1944 5.69973 19.5196C3.58233 16.2283 3.08171 13.1281 4.28402 10.7925C4.28402 10.7884 4.29224 10.7801 4.29224 10.7759C4.44407 10.5182 4.60409 10.2647 4.77234 10.0112C6.15521 8.15777 8.72809 7.08143 12.1422 6.96091C12.3597 6.9526 12.5771 6.94844 12.7946 6.94844C14.8874 6.94844 17.1361 7.29753 19.4217 7.96661C19.471 7.97907 19.5202 7.9957 19.5736 8.01232C19.6105 8.02479 19.6515 8.0331 19.6884 8.04557C20.2178 8.20348 20.7472 8.38218 21.2765 8.5775C21.2765 8.5775 21.3011 8.58582 21.3134 8.58997C21.4529 8.63984 21.5884 8.69387 21.7279 8.74374C21.773 8.76036 21.8141 8.77698 21.8592 8.7936C21.9002 8.81023 21.9413 8.82685 21.9823 8.84347C23.0984 9.27983 24.2146 9.79099 25.3143 10.3686C27.444 11.4907 29.3973 12.8039 31.0961 14.246C27.8544 14.9982 24.0874 16.4485 20.304 18.4017C20.1275 18.4932 20.0126 18.6719 20.0044 18.8672C19.9921 19.1041 19.9757 19.582 19.9593 19.9643C19.9511 20.2012 20.2014 20.3591 20.4107 20.2511C24.1612 18.2563 27.9036 16.7644 31.1166 15.9789C31.7157 15.8335 32.1055 15.2475 32.0235 14.6283C31.966 14.1961 31.8963 13.7681 31.8224 13.3483C31.728 12.8205 31.4449 12.3509 31.0263 12.0268C29.5204 10.8673 27.8626 9.7993 26.0858 8.86425C24.8875 8.23258 23.6729 7.68401 22.4583 7.21026C22.1998 7.11052 22.0849 6.79884 22.2203 6.55364C23.4719 4.2846 24.9655 3.00878 26.4181 3.00878C26.4346 3.00878 26.4469 3.00878 26.4633 3.00878C28.1785 3.03787 29.8856 4.84563 31.1495 7.96661C31.7896 9.5458 32.2861 11.366 32.6267 13.3442C32.6267 13.3442 32.6267 13.3442 32.6226 13.34C32.7662 14.1836 32.8852 15.0563 32.9714 15.954C32.9632 15.9581 32.955 15.9623 32.9467 15.9665C32.955 15.9789 32.9673 15.9872 32.9796 15.9997C33.1232 17.5041 33.1848 19.0667 33.156 20.6625C33.1396 21.6723 33.0863 22.6697 33.0001 23.6422C30.7063 25.5164 27.8749 27.3865 24.7603 29.0571C23.7386 29.6057 22.7127 30.1168 21.6991 30.5906C21.6827 30.5989 21.6663 30.6031 21.654 30.6114C21.5761 30.6488 21.4981 30.682 21.4201 30.7194C20.5789 31.1059 19.75 31.4592 18.9293 31.7833C18.8842 31.7999 18.839 31.8207 18.7898 31.8373C18.7323 31.8581 18.6749 31.883 18.6174 31.9038C18.482 31.9578 18.3425 32.0077 18.2071 32.0617C18.1702 32.0742 18.1332 32.0908 18.0963 32.1033C17.9322 32.1656 17.768 32.228 17.6039 32.2862C17.5834 32.2945 17.5628 32.3028 17.5423 32.3069C15.7902 32.9386 14.12 33.4165 12.5977 33.7157C8.92095 34.4347 7.18928 33.882 6.79534 33.1298M9.42976 5.16562C12.5443 2.90904 16.2621 1.6914 20.1686 1.6914C21.1985 1.6914 22.2162 1.77867 23.2133 1.9449C23.4801 1.99061 23.5703 2.33554 23.3569 2.50177C22.3926 3.27059 21.494 4.40511 20.6979 5.87626C20.505 6.23365 20.0947 6.41235 19.7049 6.30014C17.0745 5.54795 14.4853 5.19887 12.0929 5.28198C11.2107 5.31523 10.3736 5.4025 9.58981 5.55211C9.36822 5.59366 9.24922 5.30276 9.43387 5.16977M34.818 18.8173C34.8138 18.6012 35.0847 18.5098 35.2078 18.6843C35.3596 18.9004 35.5032 19.1165 35.6427 19.3326C35.8274 19.6194 35.9997 19.9061 36.1598 20.1929C36.2583 20.3716 36.2377 20.5918 36.0982 20.7456C35.8807 20.9866 35.6468 21.236 35.3924 21.4936C35.298 21.5892 35.2037 21.6806 35.1093 21.7762C34.9903 21.8926 34.7892 21.8053 34.7933 21.6349C34.8056 21.3274 34.8138 21.0199 34.818 20.7082C34.8303 20.0724 34.8261 19.4448 34.8097 18.8173M32.9016 6.83624C33.0165 6.94844 33.1314 7.06065 33.2463 7.17701C35.0272 8.98061 36.4019 11.0917 37.3211 13.3899C37.4154 13.6226 37.2185 13.8636 36.9764 13.8179C36.447 13.7223 35.8479 13.6766 35.1873 13.6891C34.7277 13.6974 34.3296 13.3733 34.2476 12.912C33.8865 10.8715 33.3694 8.98477 32.7005 7.33493C32.6636 7.23935 32.6226 7.14792 32.5857 7.05649C32.4995 6.85702 32.7457 6.68247 32.9016 6.83208M39.8981 16.1742C39.102 12.3385 37.2267 8.81854 34.4281 5.98015C30.6201 2.1236 25.5564 0 20.1686 0C14.7807 0 9.71703 2.1236 5.90901 5.98015C4.98162 6.91935 4.15682 7.93336 3.43871 9.00555C3.22533 9.2923 3.03246 9.59567 2.86421 9.91566C0.997135 13.0574 0 16.6605 0 20.4214C0 25.878 2.09688 31.0062 5.9049 34.8627C9.71292 38.7193 14.7766 40.8429 20.1645 40.8429C25.5523 40.8429 30.616 38.7193 34.424 34.8627C36.2213 33.0425 37.637 30.9397 38.6341 28.6499C38.7573 28.3964 38.8599 28.1387 38.9542 27.8727C39.8611 25.5289 40.333 23.0105 40.333 20.4214C40.333 18.996 40.1894 17.5914 39.9103 16.2283C39.9103 16.2116 39.9022 16.195 39.8981 16.1742ZM152.854 22.3414H149.038C148.681 22.3414 148.455 21.9466 148.636 21.6349L150.548 18.2895C150.729 17.9737 151.176 17.9779 151.356 18.2895L153.256 21.6349C153.437 21.9508 153.211 22.3414 152.854 22.3414ZM157.873 25.5206L151.857 14.9483C151.422 14.2626 150.487 14.2626 150.056 14.9483L144.04 25.5206C143.966 25.6536 143.929 25.7865 143.921 25.9403C143.884 26.5387 144.34 27.0707 144.93 27.0831C145.341 27.0914 145.665 26.8837 145.911 26.4348L146.843 24.7975C146.966 24.5814 147.191 24.4525 147.434 24.4525H154.463C154.705 24.4525 154.931 24.5855 155.054 24.7975L155.985 26.4348C156.219 26.8587 156.535 27.0707 156.921 27.0831C157.503 27.1039 158 26.6218 158 26.0317C158 25.8738 157.967 25.7159 157.877 25.5206" fill="white"/>
</svg>
