<svg width="35" height="20" viewBox="0 0 35 20" fill="none" xmlns="http://www.w3.org/2000/svg">
<path d="M34.9875 1.60625L34.9999 1.57287H34.9628L34.9751 1.54367H34.9422L34.9545 1.51029H34.9175L34.9298 1.48108H34.8928L34.9051 1.45188H34.8721L34.8845 1.4185H34.8515L34.8639 1.3893H34.8268L34.8392 1.35592H34.8062L34.8186 1.32255H34.7857L34.798 1.28917H34.765L34.7774 1.25579H34.7445L34.7568 1.22659H34.7197L34.7321 1.19321H34.6991L34.7115 1.15984H34.6744L34.6868 1.12646H34.6538L34.6662 1.09308H34.6374L34.6497 1.06388H34.6126L34.625 1.0305H34.5879L34.6002 0.997125H34.5632L34.5756 0.963749H34.5426L34.5549 0.934543H34.522L34.5344 0.905339H34.4973L34.5096 0.871963H34.4767L34.489 0.838586H34.4561L34.4684 0.80521H34.4314L34.4437 0.771832H34.4108L34.4231 0.738457H34.386L34.3984 0.709252H34.3654L34.3778 0.680048H34.3448L34.3572 0.646671H34.3243L34.3366 0.613295H34.3036L34.316 0.579918H34.279L34.2913 0.550713H34.2583L34.2707 0.517336H34.2336L34.246 0.48396H34.213L34.2254 0.450583H34.1883L34.2007 0.417207H34.1677L34.18 0.388003H34.1471L34.1595 0.358798H34.1224L34.1347 0.325421H34.0977L34.11 0.292045H34.077L34.0894 0.258668H34.0565L34.0688 0.229464H34.0359L34.0482 0.200259H34.0153L34.0276 0.166883H33.9906L34.0029 0.137678H33.97L33.9823 0.104302H33.9494L33.9617 0.0750974H33.9246L33.937 0.0417201H27.5311L23.9224 9.37464L21.257 2.32384L20.981 1.58956H20.9686L20.9562 1.55618H20.9398L20.9274 1.52698H20.9151L20.9027 1.4936H20.8904L20.878 1.4644H20.8615L20.8491 1.43519H20.8409L20.8286 1.40182H20.8162L20.8038 1.37261H20.7874L20.775 1.33923H20.7626L20.7503 1.30586H20.7379L20.7256 1.27248H20.7132L20.7008 1.23911H20.6885L20.6761 1.2099H20.6596L20.6473 1.17652H20.639L20.6267 1.14315H20.6102L20.5978 1.10977H20.5855L20.5731 1.07639H20.5608L20.5484 1.04719H20.532L20.5196 1.01381H20.5072L20.4948 0.980436H20.4825L20.4702 0.94706H20.4578L20.4454 0.917856H20.433L20.4207 0.888651H20.4042L20.3919 0.855274H20.3795L20.3672 0.821898H20.3548L20.3424 0.788521H20.3301L20.3177 0.755145H20.3054L20.293 0.721768H20.2765L20.2642 0.692564H20.2518L20.2394 0.663359H20.2271L20.2147 0.629982H20.2024L20.19 0.596606H20.1776L20.1653 0.563229H20.1488L20.1364 0.534025H20.1241L20.1118 0.500649H20.0994L20.087 0.467271H20.0788L20.0664 0.433896H20.05L20.0376 0.400518H20.0252L20.0129 0.371314H20.0005L19.9881 0.34211H19.9717L19.9593 0.308732H19.947L19.9346 0.275357H19.9222L19.9099 0.241979H19.8975L19.8852 0.212775H19.8728L19.8605 0.183571H19.8481L19.8357 0.150195H19.8234L19.811 0.12099H19.7987L19.7863 0.0876131H19.7739L19.7616 0.0584087H19.7451L19.7327 0.025033H14.3361L10.7232 9.33292L7.98372 2.28212L7.70774 1.56453H7.69537L7.683 1.53115H7.66651L7.65419 1.50194H7.64182L7.62945 1.46857H7.61708L7.60476 1.43936H7.58826L7.57589 1.41016H7.56764L7.55532 1.37678H7.54295L7.53058 1.34758H7.51409L7.50177 1.3142H7.4894L7.47702 1.28083H7.46465L7.45233 1.24745H7.43996L7.42759 1.21407H7.41522L7.40285 1.18487H7.38641L7.37404 1.15149H7.36579L7.35342 1.11812H7.33697L7.3246 1.08474H7.31223L7.29986 1.05136H7.29166L7.27929 1.02216H7.2628L7.25043 0.98878H7.23811L7.22574 0.955405H7.21337L7.201 0.922027H7.18868L7.1763 0.892823H7.16393L7.15156 0.863618H7.13512L7.12275 0.830241H7.11038L7.09801 0.796865H7.08569L7.07332 0.763488H7.06094L7.04857 0.730112H7.03625L7.02388 0.696735H7.00739L6.99502 0.667531H6.9827L6.97033 0.638326H6.95796L6.94558 0.604951H6.93326L6.92089 0.571573H6.90852L6.89615 0.538197H6.87971L6.86734 0.508993H6.85497L6.8426 0.475616H6.83027L6.8179 0.44224H6.80966L6.79729 0.408863H6.78084L6.76847 0.375487H6.7561L6.74373 0.346281H6.73141L6.71904 0.317077H6.70254L6.69017 0.283701H6.67785L6.66548 0.250324H6.65311L6.64074 0.216948H6.62842L6.61605 0.187743H6.60368L6.59131 0.158539H6.57894L6.56662 0.125162H6.55425L6.54188 0.0959574H6.5295L6.51718 0.0625817H6.50481L6.49244 0.0333757H6.47595L6.46363 0H0L0.708554 1.7773L7.07332 17.8356L7.39053 18.6575H7.4111L7.41934 18.6825H7.43996L7.44821 18.7076H7.46878L7.47702 18.7326H7.49764L7.50584 18.7576H7.52646L7.5347 18.7827H7.55532L7.56352 18.8077H7.58414L7.59238 18.8327H7.61295L7.6212 18.8578H7.64182L7.65006 18.8828H7.67476L7.683 18.9078H7.70362L7.71182 18.9329H7.73244L7.74068 18.9579H7.76537L7.77362 18.9829H7.79012L7.79836 19.008H7.81893L7.82718 19.033H7.8478L7.85604 19.058H7.88073L7.88898 19.083H7.9096L7.9178 19.1081H7.93841L7.94666 19.1331H7.96728L7.97548 19.1581H7.99609L8.00434 19.1832H8.02903L8.03728 19.2082H8.0579L8.06615 19.2332H8.08671L8.09496 19.2583H8.11558L8.12377 19.2833H8.14439L8.15264 19.3083H8.17326L8.18145 19.3334H8.20207L8.21032 19.3584H8.23089L8.23913 19.3834H8.25975L8.268 19.4085H8.28857L8.29681 19.4335H8.32156L8.32975 19.4585H8.34625L8.35449 19.4836H8.37511L8.38331 19.5086H8.40805L8.4163 19.5336H8.43274L8.44099 19.5587H8.46573L8.47398 19.5837H8.49455L8.50279 19.6087H8.52341L8.53166 19.6338H8.55223L8.56047 19.6588H8.58109L8.58929 19.6838H8.61403L8.62228 19.7089H8.64284L8.65109 19.7339H8.66759L8.67583 19.7589H8.70052L8.70877 19.784H8.72939L8.73764 19.809H8.7582L8.76645 19.834H8.79119L8.79939 19.8591H8.82001L8.82825 19.8841H14.0683L14.3444 19.1707L17.8213 10.4761L20.6926 17.8398L21.0098 18.6617H21.0345L21.0428 18.6867H21.0633L21.0716 18.7117H21.0922L21.1004 18.7368H21.121L21.1293 18.7618H21.1499L21.1581 18.7868H21.1787L21.187 18.8119H21.2075L21.2158 18.8369H21.2364L21.2446 18.8619H21.2652L21.2735 18.887H21.2982L21.3064 18.912H21.327L21.3353 18.937H21.3559L21.3641 18.9621H21.3888L21.3971 18.9871H21.4135L21.4217 19.0121H21.4424L21.4506 19.0372H21.4712L21.4794 19.0622H21.5042L21.5124 19.0872H21.533L21.5412 19.1123H21.5619L21.57 19.1373H21.5907L21.5989 19.1623H21.6195L21.6277 19.1874H21.6525L21.6607 19.2124H21.6813L21.6895 19.2374H21.7101L21.7183 19.2624H21.739L21.7472 19.2875H21.7678L21.776 19.3125H21.7966L21.8049 19.3375H21.8255L21.8337 19.3584H21.8502L21.8584 19.3834H21.879L21.8873 19.4085H21.9079L21.9161 19.4335H21.9367L21.9449 19.4585H21.9614L21.9697 19.4794H21.9903L21.9985 19.5044H22.0232L22.0314 19.5295H22.0479L22.0562 19.5545H22.0809L22.0891 19.5795H22.1097L22.118 19.6046H22.1386L22.1468 19.6296H22.1674L22.1757 19.6546H22.1962L22.2045 19.6797H22.2292L22.2374 19.7047H22.258L22.2663 19.7297H22.2828L22.291 19.7548H22.3157L22.324 19.7798H22.3445L22.3528 19.8048H22.3734L22.3816 19.8299H22.4063L22.4146 19.8549H22.4352L22.4434 19.8799H27.6958L27.9719 19.1665L34.3613 3.10402L34.9834 1.54784H34.9504L34.9875 1.60625ZM25.7762 17.5102L25.7432 17.5978H21.8378L17.0262 5.25681L12.1239 17.5185L12.0909 17.6061H8.19795L8.16501 17.5227L1.722 1.26831H5.70152L10.4184 13.4174L15.1353 1.26831H18.9583L23.5804 13.505L28.3138 1.25579H32.2397L25.7762 17.5018V17.5102Z" fill="white"/>
</svg>
