<svg width="28" height="28" viewBox="0 0 28 28" fill="none" xmlns="http://www.w3.org/2000/svg">
<path d="M13.8259 28C10.1585 27.9958 6.64562 26.5194 4.0517 23.8924C1.46195 21.2697 0 17.7078 0 13.9936C0.00835402 10.2795 1.46613 6.72186 4.06423 4.09911C6.65815 1.47635 10.1752 0 13.8426 0C17.51 0.00423024 21.0229 1.48059 23.6168 4.10757C26.2107 6.73455 27.6685 10.2922 27.6727 14.0063C27.6643 17.7205 26.2024 21.2781 23.6085 23.9009C21.0145 26.5236 17.4975 27.9958 13.8301 28M13.8384 1.07871C10.4551 1.07871 7.20952 2.44085 4.81191 4.86055C2.41849 7.28025 1.06931 10.5672 1.06096 13.9936C1.06096 17.4201 2.40596 20.707 4.79938 23.131C7.19281 25.5549 10.4383 26.917 13.8259 26.917C17.2093 26.917 20.459 25.5591 22.8524 23.1394C25.25 20.7197 26.595 17.4328 26.6034 14.0063C26.6034 10.5798 25.2542 7.29294 22.8608 4.86901C20.4673 2.44508 17.2218 1.08294 13.8384 1.07871Z" fill="white"/>
</svg>
