<svg width="9" height="12" viewBox="0 0 9 12" fill="none" xmlns="http://www.w3.org/2000/svg">
<path d="M8.88623 0.123985C8.96777 0.215261 9.0107 0.336963 8.99782 0.458665V1.59744C9.0107 1.71915 8.96777 1.84085 8.88193 1.93212C8.79181 2.01471 8.67163 2.05817 8.55146 2.04513H5.63302V11.4727C5.65019 11.69 5.49576 11.8856 5.28117 11.9073C5.25113 11.9073 5.22111 11.9073 5.19536 11.9073H3.81761C3.69744 11.9203 3.57726 11.8769 3.48713 11.7943C3.40129 11.703 3.36277 11.5813 3.37564 11.4596V2.02775H0.444322C0.324152 2.03644 0.203973 1.99732 0.113846 1.91474C0.0323021 1.82346 -0.01062 1.70176 0.00225537 1.58006V0.449971C-0.01062 0.32827 0.0323021 0.20657 0.113846 0.115294C0.203973 0.0327106 0.324152 -0.0107552 0.444322 0.00228424H8.54716C8.67162 -0.00206225 8.79611 0.041403 8.89052 0.128333" fill="white"/>
</svg>
