<svg width="46" height="47" viewBox="0 0 46 47" fill="none" xmlns="http://www.w3.org/2000/svg">
<path fill-rule="evenodd" clip-rule="evenodd" d="M28.3926 33.4982L16.1902 30.1855L12.9192 17.8276L14.8101 18.3408L14.2375 16.1796L11.2796 15.3785L0 26.8019L4.12789 42.4057L19.5354 46.5862L30.8149 35.1628L26.687 19.559L21.1214 18.0487L21.694 20.2099L25.1216 21.1403L28.3926 33.4982ZM18.9668 44.4167L27.8982 35.3715L15.6958 32.0588L6.76447 41.104L18.9668 44.4167ZM5.40909 39.7355L14.3405 30.6903L11.0695 18.3324L2.13812 27.3776L5.40909 39.7355ZM17.6073 13.0838L29.8097 16.3965L33.0807 28.7544L31.1898 28.2413L31.7624 30.4066L34.7203 31.2076L45.9999 19.7843L41.872 4.18049L26.4646 0L15.185 11.4233L19.3129 27.0272L24.8785 28.5375L24.3059 26.3763L20.8742 25.4459L17.6032 13.088L17.6073 13.0838ZM40.5908 6.84649L31.6594 15.8917L34.9305 28.2496L43.8618 19.2044L40.5908 6.84649ZM27.0372 2.16117L18.1059 11.2064L30.3082 14.5191L39.2396 5.47385L27.0372 2.16117Z" fill="white"/>
</svg>
