<svg width="8" height="11" viewBox="0 0 8 11" fill="none" xmlns="http://www.w3.org/2000/svg">
<path d="M7.74065 9.96329V10.7741C7.74065 10.8049 7.74065 10.8358 7.7276 10.8622C7.71889 10.8887 7.7015 10.9151 7.67974 10.9371C7.65799 10.9592 7.63187 10.9768 7.60577 10.9856C7.57966 10.9944 7.54486 11.0032 7.51875 10.9988H0.221899C0.160983 10.9944 0.104424 10.9724 0.0652643 10.9283C0.021753 10.8843 0 10.8314 0 10.7697V0.224735C0.00435113 0.163043 0.0260993 0.105757 0.0739618 0.0660978C0.117473 0.0220319 0.169694 0 0.230609 0H1.26182C1.32274 0 1.3793 0.0264385 1.41846 0.0660978C1.45762 0.110164 1.48372 0.163043 1.48372 0.224735V9.73414H7.52745C7.55791 9.73414 7.58837 9.73414 7.61448 9.74736C7.64493 9.75617 7.67104 9.7738 7.69279 9.79583C7.71455 9.81787 7.7276 9.84431 7.74065 9.87075C7.74935 9.89719 7.75805 9.92803 7.7537 9.95888" fill="white"/>
</svg>
