<svg width="12" height="12" viewBox="0 0 12 12" fill="none" xmlns="http://www.w3.org/2000/svg">
<path d="M1.90057 11.9908H0.393043C0.293693 11.9952 0.190061 11.969 0.107989 11.9077C0.0388762 11.8596 0 11.7809 0 11.6934C0.0129587 11.6146 0.0345144 11.5359 0.0647514 11.4659L5.65003 0.262479C5.73211 0.0874935 5.83576 0 5.95671 0C6.07766 0 6.17699 0.0874935 6.26338 0.262479L11.8486 11.4746C11.8831 11.549 11.9048 11.6234 11.9134 11.7021C11.9134 11.7852 11.8745 11.8684 11.8054 11.9165C11.7234 11.9733 11.6239 12.004 11.5203 11.9996H9.99977C9.77515 11.9996 9.57216 11.8684 9.48576 11.6628L8.72552 10.1185H3.15331L2.41036 11.6846C2.31964 11.8902 2.11222 12.0127 1.89192 11.9952M4.25914 8.11493H7.63697L5.96968 4.37025L4.25914 8.11493Z" fill="white"/>
</svg>
