<svg width="18" height="24" viewBox="0 0 18 24" fill="none" xmlns="http://www.w3.org/2000/svg">
<path d="M14.5525 6.67984C13.4416 6.03635 12.1053 5.71668 10.5434 5.71668C9.11689 5.71668 7.82151 6.05711 6.65321 6.73796C5.51771 7.38976 4.59124 8.34046 3.86156 9.57762V0H0V23.1656H3.86156V14.8625C3.86156 13.6794 4.07881 12.6456 4.51334 11.7655C4.96836 10.8812 5.60376 10.2004 6.41542 9.71878C7.24758 9.21644 8.20683 8.96735 9.29724 8.96735C10.8796 8.96735 12.0807 9.42817 12.8923 10.3498C13.7245 11.2715 14.1385 12.6166 14.1385 14.381V23.1656H18.0001V13.7499C18.0001 12.0852 17.7049 10.6529 17.1105 9.44893C16.5366 8.24498 15.6839 7.32333 14.5566 6.67984H14.5525Z" fill="white"/>
</svg>
