<svg width="14" height="11" viewBox="0 0 14 11" fill="none" xmlns="http://www.w3.org/2000/svg">
<path d="M13.9747 0.258272L10.407 10.3836C10.3906 10.4334 10.3578 10.475 10.3168 10.504C10.2716 10.5331 10.2224 10.5456 10.1732 10.5414H9.90257C9.85336 10.5414 9.80005 10.529 9.75904 10.4999C9.71393 10.4708 9.68112 10.4293 9.66472 10.3836L6.99506 3.2776L4.32539 10.3794C4.30899 10.4251 4.27618 10.4667 4.23107 10.4957C4.19006 10.5248 4.13675 10.5373 4.08754 10.5331H3.81279C3.76358 10.5331 3.71027 10.5207 3.66926 10.4957C3.62415 10.4667 3.59544 10.4251 3.57904 10.3794L0.0194867 0.25412C-0.0338246 0.0963009 0.0235864 0.000778709 0.175318 0.000778709H1.27845C1.33176 -0.00337442 1.38097 0.00908503 1.42608 0.0381569C1.47119 0.0672288 1.504 0.108759 1.5204 0.158596L4.05884 7.82527L6.64238 0.806485C6.66289 0.756648 6.69569 0.715117 6.7367 0.690198C6.78181 0.661126 6.83102 0.648667 6.88023 0.65282H7.11398C7.16319 0.65282 7.2165 0.665279 7.25751 0.690198C7.29852 0.71927 7.33133 0.760801 7.34773 0.806485L10.0051 7.82943L12.4902 0.16275C12.5066 0.112913 12.5394 0.0713813 12.5845 0.0423094C12.6296 0.0132375 12.683 0.000778012 12.7322 0.00493114H13.8189C13.9747 0.00493114 14.0362 0.104606 13.9788 0.258272" fill="white"/>
</svg>
