<svg width="12" height="12" viewBox="0 0 12 12" fill="none" xmlns="http://www.w3.org/2000/svg">
<path d="M11.6561 5.86427V6.30707C11.6561 6.41249 11.6561 6.63178 11.6269 6.93541C11.5562 7.86317 11.2606 8.75719 10.7692 9.54156C10.2862 10.3049 9.61156 10.9248 8.81624 11.3338C5.94724 12.7971 2.44947 11.7766 0.796366 8.98912C-0.265455 7.13783 -0.265455 4.84796 0.796366 2.99245C1.3127 2.08999 2.05396 1.33935 2.94506 0.812221C4.64813 -0.19566 6.73841 -0.271567 8.50811 0.618236C9.3076 1.01886 10.0113 1.5966 10.5651 2.30506C10.6234 2.38097 10.6609 2.47796 10.6692 2.57496C10.6525 2.71834 10.5652 2.84063 10.4361 2.89967L9.31183 3.60814C9.23688 3.65875 9.15357 3.68405 9.06612 3.68826C8.92871 3.67561 8.80376 3.60814 8.72048 3.4985C8.36237 3.07257 7.92522 2.71834 7.43386 2.4611C6.96333 2.20385 6.43443 2.06891 5.90144 2.06469C5.24353 2.06047 4.59394 2.23759 4.02764 2.57496C3.45717 2.91654 2.98663 3.4015 2.666 3.98346C2.32455 4.59493 2.14967 5.28654 2.158 5.99079C2.14551 6.69082 2.32455 7.38664 2.67017 7.9939C3.00745 8.5885 3.4947 9.07768 4.08599 9.40662C4.6981 9.75242 5.38925 9.92532 6.09297 9.91688C6.63012 9.92953 7.16311 9.81567 7.65447 9.59217C8.09585 9.38975 8.48319 9.0819 8.783 8.69393C9.06199 8.32705 9.24104 7.89269 9.3035 7.42881H5.52672C5.31852 7.44989 5.13113 7.3023 5.10615 7.09144C5.10615 7.06192 5.10615 7.0324 5.10615 7.0071V5.88114C5.09782 5.76306 5.13947 5.64499 5.21442 5.55643C5.30186 5.4763 5.41846 5.43413 5.53505 5.44257H11.2356C11.4479 5.42992 11.6311 5.58595 11.6478 5.80102C11.6478 5.8221 11.6478 5.84319 11.6478 5.86427" fill="white"/>
</svg>
