<svg width="11" height="11" viewBox="0 0 11 11" fill="none" xmlns="http://www.w3.org/2000/svg">
<path d="M10.4688 0.00530821H10.7876C10.8166 0.00530821 10.8456 0.0053077 10.8704 0.0178881C10.8953 0.026275 10.9201 0.0430492 10.9408 0.0640165C10.9615 0.0849838 10.9781 0.110145 10.9864 0.135306C10.9946 0.160467 11.0029 0.189822 10.9988 0.219176V10.4261C10.9988 10.4554 10.9905 10.4848 10.9822 10.5099C10.9739 10.5351 10.9574 10.5603 10.9367 10.5812C10.916 10.6022 10.8911 10.619 10.8663 10.6274C10.8414 10.6357 10.8083 10.6399 10.7835 10.6399H9.80212C9.77314 10.6399 9.74415 10.6399 9.71931 10.6274C9.69447 10.619 9.66962 10.6022 9.64892 10.5812C9.62822 10.5603 9.61165 10.5351 9.60337 10.5099C9.59509 10.4848 9.59095 10.4554 9.59095 10.4261V3.17976L5.64487 8.92062C5.63245 8.94997 5.61174 8.97094 5.5869 8.99191C5.56206 9.00868 5.52893 9.01707 5.49994 9.01707C5.47096 9.01707 5.43784 9.00868 5.41299 8.99191C5.38815 8.97513 5.36744 8.94997 5.35502 8.92062L1.40894 3.17557V10.4219C1.40894 10.4512 1.4048 10.4806 1.39237 10.5057C1.38409 10.5309 1.36753 10.5561 1.34683 10.577C1.32612 10.598 1.30128 10.6148 1.27644 10.6232C1.25159 10.6316 1.22261 10.6399 1.19362 10.6357H0.212281C0.183296 10.6357 0.154306 10.6357 0.129462 10.6232C0.104618 10.6148 0.0797743 10.598 0.0590709 10.577C0.0383674 10.5561 0.0218044 10.5309 0.013523 10.5057C0.0052416 10.4806 -0.00303928 10.4512 0.00110141 10.4219V0.214982C0.00110141 0.185627 0.00938634 0.156273 0.0176677 0.131112C0.0259491 0.105951 0.0425121 0.0807911 0.0632156 0.0598237C0.0839191 0.0388564 0.108762 0.0220823 0.133607 0.0136953C0.158451 0.00530841 0.191575 -0.00307802 0.216419 0.00111545H0.535254C0.589083 0.00111545 0.63877 0.0136959 0.688458 0.0388567C0.734006 0.0640175 0.775412 0.101759 0.804397 0.143693L5.50409 6.7484L10.2162 0.147886C10.241 0.101758 10.2824 0.0682103 10.328 0.0430495C10.3735 0.0178887 10.4232 0.00530821 10.4771 0.00530821" fill="white"/>
</svg>
