<svg width="81" height="40" viewBox="0 0 81 40" fill="none" xmlns="http://www.w3.org/2000/svg">
<path d="M7.50353 1.55837H4.62044V9.1282H2.88309V1.55837H0V0.00418847H7.50353V1.55837ZM12.4424 9.19104C11.7227 9.19104 11.1105 9.06955 10.6017 8.83077C10.1012 8.58361 9.69587 8.24429 9.3815 7.81699C9.0754 7.3897 8.85203 6.90375 8.70725 6.36335C8.56248 5.81457 8.49215 5.24484 8.49215 4.65417V0H10.2419V4.65417C10.2419 5.03119 10.275 5.39984 10.3453 5.76011C10.4197 6.112 10.5438 6.43038 10.7134 6.71105C10.883 6.99591 11.1064 7.21794 11.3877 7.38132C11.6689 7.5447 12.0123 7.62429 12.4301 7.62429C12.8478 7.62429 13.2035 7.5447 13.4848 7.38132C13.7744 7.20956 13.9977 6.98335 14.1591 6.69848C14.3287 6.41362 14.4528 6.09943 14.5272 5.74754C14.6017 5.38727 14.643 5.02281 14.643 4.65417V0H16.3803V4.65417C16.3803 5.27835 16.3059 5.86484 16.1529 6.41362C16.0081 6.9624 15.7764 7.44834 15.4538 7.86726C15.1394 8.2778 14.7341 8.60456 14.2335 8.84334C13.733 9.07374 13.1374 9.19104 12.4424 9.19104ZM25.493 9.1282V3.13769L23.1807 7.59915H22.2045L19.8922 3.13769V9.1282H18.1425V0H20.0204L22.6843 5.19457L25.3771 0H27.2427V9.1282H25.493ZM8.02473 21.968C8.02473 22.4833 7.89238 22.9148 7.63178 23.2667C7.37119 23.6102 7.01542 23.8699 6.56455 24.05C6.12608 24.2302 5.64212 24.3181 5.11679 24.3181H0.761093V15.1899H5.58421C6.00613 15.1899 6.37014 15.3072 6.67624 15.5376C6.99061 15.7597 7.22638 16.0529 7.3877 16.4132C7.55729 16.7651 7.64001 17.1337 7.64001 17.5191C7.64001 17.9548 7.52836 18.3737 7.30913 18.7675C7.0899 19.1613 6.76722 19.4545 6.3453 19.643C6.86236 19.798 7.26776 20.0745 7.56559 20.4767C7.87168 20.8788 8.02059 21.3773 8.02059 21.968H8.02473ZM6.25845 21.6329C6.25845 21.4025 6.21297 21.1972 6.11783 21.0171C6.02269 20.8286 5.89858 20.6819 5.73726 20.5814C5.58421 20.4683 5.40632 20.4138 5.20364 20.4138H2.51085V22.8184H5.11265C5.32361 22.8184 5.51389 22.7681 5.68348 22.6634C5.86135 22.5503 6.00199 22.4079 6.10127 22.2277C6.20468 22.0476 6.25431 21.8507 6.25431 21.6371L6.25845 21.6329ZM2.51494 16.7106V19.0105H4.85205C5.04646 19.0105 5.22435 18.9644 5.38567 18.868C5.54699 18.7717 5.67524 18.6418 5.76624 18.4701C5.86965 18.2983 5.91929 18.093 5.91929 17.8542C5.91929 17.6155 5.87375 17.4228 5.77861 17.251C5.69588 17.0792 5.57593 16.9452 5.42288 16.853C5.27811 16.7567 5.11267 16.7106 4.92653 16.7106H2.51494ZM9.38978 24.3223V15.1941H11.1395V22.7639H15.7351V24.3181H9.38978V24.3223ZM20.4506 24.3852C19.7888 24.3852 19.189 24.2553 18.6471 23.9998C18.1135 23.7442 17.6544 23.3965 17.2655 22.9567C16.885 22.5126 16.5872 22.0141 16.3762 21.4653C16.1652 20.9081 16.0577 20.3384 16.0577 19.7561C16.0577 19.1738 16.1694 18.5706 16.3886 18.0218C16.6161 17.4647 16.9264 16.9703 17.3152 16.543C17.7123 16.1074 18.1797 15.7638 18.7133 15.5167C19.2552 15.2611 19.8467 15.1313 20.492 15.1313C21.1373 15.1313 21.737 15.2653 22.2706 15.5293C22.8125 15.7932 23.2717 16.1493 23.6523 16.5975C24.0328 17.0415 24.3306 17.5401 24.5415 18.0888C24.7525 18.6376 24.8601 19.2032 24.8601 19.7854C24.8601 20.3677 24.7484 20.9626 24.5291 21.5198C24.3099 22.0686 23.9997 22.5629 23.6026 22.9985C23.2138 23.4258 22.7464 23.7652 22.2045 24.0123C21.6709 24.2595 21.0877 24.3852 20.4548 24.3852H20.4506ZM17.8364 19.7561C17.8364 20.1499 17.8943 20.5311 18.0143 20.8998C18.1342 21.2684 18.3038 21.5994 18.523 21.8884C18.7505 22.1733 19.0277 22.3995 19.3462 22.5712C19.6771 22.7346 20.0494 22.8142 20.463 22.8142C20.8767 22.8142 21.2614 22.7304 21.5923 22.5587C21.9232 22.3785 22.1962 22.144 22.4155 21.8507C22.6347 21.5491 22.8001 21.2223 22.9118 20.8621C23.0318 20.4934 23.0897 20.1248 23.0897 19.7561C23.0897 19.3623 23.0276 18.9853 22.8994 18.6251C22.7794 18.2564 22.6057 17.9296 22.3782 17.649C22.159 17.3557 21.8818 17.1295 21.555 16.9661C21.2324 16.7944 20.8684 16.7106 20.463 16.7106C20.0328 16.7106 19.6523 16.7986 19.3214 16.9787C18.9987 17.1505 18.7299 17.3809 18.5106 17.6741C18.2914 17.9674 18.1218 18.2899 18.0018 18.6502C17.8902 19.0105 17.8364 19.3791 17.8364 19.7561ZM25.6542 19.6933C25.6542 19.1361 25.7536 18.5915 25.948 18.0595C26.1507 17.5191 26.4443 17.0332 26.8249 16.5933C27.2054 16.1493 27.6729 15.7974 28.2231 15.5376C28.7732 15.2737 29.3977 15.1397 30.1009 15.1397C30.9323 15.1397 31.6439 15.324 32.2478 15.6926C32.8559 16.0613 33.3109 16.543 33.6046 17.1337L32.2602 18.0721C32.1072 17.7286 31.9086 17.4605 31.6645 17.2636C31.4205 17.0583 31.1558 16.9159 30.8786 16.8405C30.5973 16.7567 30.3243 16.7106 30.0555 16.7106C29.617 16.7106 29.2323 16.7986 28.9014 16.9787C28.5787 17.1588 28.3099 17.3934 28.0907 17.6867C27.8714 17.9799 27.706 18.3025 27.5943 18.6628C27.4909 19.023 27.4412 19.3833 27.4412 19.7436C27.4412 20.1457 27.5032 20.5353 27.6315 20.9123C27.7597 21.281 27.9376 21.6119 28.1651 21.901C28.4009 22.1858 28.6822 22.4121 29.0048 22.5838C29.3357 22.7472 29.6956 22.8268 30.0845 22.8268C30.3657 22.8268 30.6469 22.7807 30.9365 22.6844C31.226 22.588 31.4908 22.4414 31.7349 22.2361C31.9789 22.0308 32.1692 21.7627 32.3057 21.4402L33.741 22.2738C33.5631 22.7262 33.2695 23.1117 32.8641 23.43C32.467 23.7484 32.0162 23.9872 31.5198 24.1506C31.0193 24.3139 30.527 24.3935 30.0348 24.3935C29.3936 24.3935 28.8021 24.2595 28.2685 23.9956C27.7349 23.7233 27.2758 23.363 26.887 22.9148C26.5064 22.4623 26.2044 21.9554 25.9852 21.3983C25.7742 20.8327 25.6667 20.263 25.6667 19.6891L25.6542 19.6933ZM34.8992 24.3223V15.2067H36.649V19.5383L40.4297 15.1941H42.3573L38.9033 19.245L42.5724 24.3223H40.591L37.7865 20.3887L36.6448 21.5952V24.3223H34.8951H34.8992ZM42.3242 19.6933C42.3242 19.1361 42.4234 18.5915 42.6178 18.0595C42.8205 17.5191 43.1142 17.0332 43.4948 16.5933C43.8754 16.1493 44.3427 15.7974 44.8929 15.5376C45.443 15.2737 46.0676 15.1397 46.7708 15.1397C47.6023 15.1397 48.3138 15.324 48.9177 15.6926C49.5258 16.0613 49.9807 16.543 50.2744 17.1337L48.9301 18.0721C48.777 17.7286 48.5785 17.4605 48.3344 17.2636C48.0904 17.0583 47.8257 16.9159 47.5485 16.8405C47.2673 16.7567 46.9943 16.7106 46.7254 16.7106C46.2869 16.7106 45.9022 16.7986 45.5713 16.9787C45.2487 17.1588 44.9798 17.3934 44.7606 17.6867C44.5413 17.9799 44.3759 18.3025 44.2642 18.6628C44.1608 19.023 44.1111 19.3833 44.1111 19.7436C44.1111 20.1457 44.1732 20.5353 44.3014 20.9123C44.4296 21.281 44.6075 21.6119 44.835 21.901C45.0708 22.1858 45.3521 22.4121 45.6747 22.5838C46.0056 22.7472 46.3654 22.8268 46.7543 22.8268C47.0356 22.8268 47.3169 22.7807 47.6064 22.6844C47.896 22.588 48.1607 22.4414 48.4047 22.2361C48.6488 22.0308 48.8391 21.7627 48.9756 21.4402L50.4109 22.2738C50.2331 22.7262 49.9394 23.1117 49.5341 23.43C49.137 23.7484 48.6861 23.9872 48.1897 24.1506C47.6892 24.3139 47.1969 24.3935 46.7047 24.3935C46.0635 24.3935 45.472 24.2595 44.9384 23.9956C44.4048 23.7233 43.9456 23.363 43.5568 22.9148C43.1763 22.4623 42.8743 21.9554 42.6551 21.3983C42.4441 20.8327 42.3366 20.263 42.3366 19.6891L42.3242 19.6933ZM59.1513 15.1941V24.3223H57.4139V20.4264H53.3272V24.3223H51.5774V15.1941H53.3272V18.8848H57.4139V15.1941H59.1513ZM63.4822 15.1941H65.2608L68.5741 24.3223H66.7706L65.9309 22.0476H62.783L61.9599 24.3223H60.1564L63.4822 15.1941ZM65.6124 20.7992L64.3673 17.0332L63.0727 20.7992H65.6124ZM69.5586 24.3223V15.1941H71.3083V24.3223H69.5586ZM74.9443 18.4575V24.3181H73.1945V15.1899H74.5926L79.2503 21.2056V15.2025H81V24.3181H79.5398L74.9443 18.4575ZM0.215104 34.8874C0.215104 34.3302 0.314362 33.7857 0.508775 33.2536C0.711462 32.7132 1.00515 32.2273 1.3857 31.7874C1.76625 31.3434 2.23368 30.9915 2.78382 30.7318C3.33397 30.4678 3.95859 30.3338 4.66179 30.3338C5.49322 30.3338 6.20466 30.5181 6.80858 30.8867C7.41664 31.2554 7.87166 31.7372 8.16535 32.3278L6.82101 33.2662C6.66796 32.9227 6.46943 32.6546 6.22538 32.4577C5.98133 32.2524 5.71659 32.11 5.43944 32.0346C5.15817 31.9508 4.88516 31.9047 4.61629 31.9047C4.17783 31.9047 3.79312 31.9927 3.46221 32.1728C3.13956 32.353 2.87071 32.5876 2.65148 32.8808C2.43225 33.174 2.26676 33.4966 2.15508 33.8569C2.05166 34.2171 2.00203 34.5774 2.00203 34.9377C2.00203 35.3398 2.06411 35.7294 2.19234 36.1065C2.32057 36.4751 2.4984 36.806 2.72591 37.0951C2.96169 37.38 3.24298 37.6062 3.56562 37.7779C3.89654 37.9413 4.2564 38.0209 4.64523 38.0209C4.92651 38.0209 5.20781 37.9748 5.49736 37.8785C5.78691 37.7821 6.05162 37.6355 6.29567 37.4302C6.53972 37.225 6.73 36.961 6.8665 36.6343L8.30189 37.4679C8.12402 37.9204 7.83033 38.31 7.42496 38.6241C7.02786 38.9425 6.57699 39.1813 6.08061 39.3447C5.5801 39.5081 5.08783 39.5877 4.59559 39.5877C3.95444 39.5877 3.36292 39.4536 2.82932 39.1897C2.29572 38.9174 1.83658 38.5571 1.44776 38.1089C1.0672 37.6565 0.765272 37.1496 0.54604 36.5924C0.335081 36.0269 0.227525 35.4571 0.227525 34.8832L0.215104 34.8874ZM9.4642 39.5123V30.3841H11.2139V37.9539H15.8095V39.5081H9.4642V39.5123ZM20.463 39.5793C19.7433 39.5793 19.1311 39.4578 18.6223 39.219C18.1218 38.9719 17.7165 38.6325 17.4021 38.2052C17.096 37.7779 16.8726 37.292 16.7278 36.7516C16.5831 36.2028 16.5127 35.6331 16.5127 35.0424V30.3882H18.2624V35.0424C18.2624 35.4194 18.2955 35.7881 18.3659 36.1484C18.4403 36.5002 18.5644 36.8186 18.734 37.0993C18.9036 37.38 19.127 37.6062 19.4082 37.7696C19.6895 37.9329 20.0329 38.0125 20.4506 38.0125C20.8684 38.0125 21.2241 37.9329 21.5054 37.7696C21.795 37.5978 22.0183 37.3716 22.1797 37.0867C22.3492 36.8019 22.4733 36.4877 22.5478 36.1358C22.6223 35.7755 22.6636 35.4111 22.6636 35.0424V30.3882H24.401V35.0424C24.401 35.6666 24.3265 36.2573 24.1735 36.8019C24.0287 37.3506 23.797 37.8366 23.4744 38.2555C23.16 38.666 22.7546 38.9928 22.2541 39.2316C21.7536 39.462 21.1579 39.5793 20.463 39.5793ZM33.4225 37.1621C33.4225 37.6774 33.2902 38.1089 33.0296 38.4608C32.769 38.8043 32.4132 39.064 31.9623 39.2441C31.5239 39.4243 31.0399 39.5123 30.5146 39.5123H26.159V30.3841H30.982C31.404 30.3841 31.7679 30.5013 32.074 30.7318C32.3884 30.9538 32.6242 31.247 32.7856 31.6073C32.9552 31.9592 33.0378 32.3278 33.0378 32.7132C33.0378 33.1489 32.9261 33.5678 32.7069 33.9616C32.4877 34.3554 32.1651 34.6486 31.7432 34.8371C32.2602 34.9921 32.6656 35.2686 32.9634 35.6708C33.2695 36.0729 33.4184 36.5715 33.4184 37.1621H33.4225ZM31.6562 36.827C31.6562 36.5966 31.6108 36.3913 31.5157 36.2112C31.4205 36.0227 31.2964 35.8761 31.135 35.7755C30.982 35.6624 30.8042 35.6079 30.6015 35.6079H27.9087V38.0125H30.5105C30.7215 38.0125 30.9117 37.9623 31.0813 37.8575C31.2592 37.7444 31.3998 37.602 31.4991 37.4219C31.5984 37.2417 31.6521 37.0448 31.6521 36.8312L31.6562 36.827ZM27.9128 31.9047V34.2046H30.2499C30.4443 34.2046 30.6222 34.1585 30.7835 34.0621C30.9448 33.9658 31.073 33.8359 31.164 33.6642C31.2674 33.4924 31.3171 33.2871 31.3171 33.0484C31.3171 32.8096 31.2716 32.6169 31.1764 32.4451C31.0937 32.2734 30.9738 32.1393 30.8208 32.0472C30.676 31.9508 30.5104 31.9047 30.3243 31.9047H27.9128Z" fill="white"/>
</svg>
