<svg width="10" height="12" viewBox="0 0 10 12" fill="none" xmlns="http://www.w3.org/2000/svg">
<path d="M0.00840267 0.179694C0.00840267 0.0606735 0.054605 0.00116248 0.146944 0.00116248C0.239283 0.00116248 0.331631 0.0776758 0.470139 0.2222L7.78169 7.12113V0.438988C7.77329 0.319968 7.81527 0.200948 7.89502 0.111682C7.98316 0.0309185 8.10069 -0.00733897 8.21822 0.00116248H9.56551C9.68303 -0.00733897 9.80057 0.0351685 9.88871 0.115932C9.96845 0.205198 10.0104 0.324218 9.99784 0.443238V11.4909C9.99364 11.6056 9.94323 11.6652 9.8509 11.6652C9.75856 11.6652 9.68719 11.5971 9.5277 11.4611L2.18254 4.66846V11.2358C2.20353 11.4484 2.0483 11.6397 1.83844 11.6609C1.81326 11.6609 1.7796 11.6609 1.75442 11.6609H0.419723C0.209862 11.6822 0.0209862 11.5291 0 11.3166C0 11.2911 0 11.2613 0 11.2316V0.183944L0.00840267 0.179694Z" fill="white"/>
</svg>
