<svg width="19" height="18" viewBox="0 0 19 18" fill="none" xmlns="http://www.w3.org/2000/svg">
<path d="M17.9981 0H14.0653V8.45625C14.0653 9.66126 13.844 10.7225 13.4015 11.6443C12.9589 12.5448 12.3327 13.2383 11.5269 13.7287C10.7212 14.2192 9.7735 14.4644 8.68384 14.4644C7.13077 14.4644 5.94928 14.0035 5.14352 13.086C4.33777 12.1474 3.93279 10.7775 3.93279 8.98053V0.00422741H0V9.59361C0 11.2891 0.292234 12.7478 0.876722 13.9739C1.46121 15.2001 2.30875 16.1387 3.41928 16.7941C4.52981 17.4495 5.85741 17.775 7.41047 17.775C8.84247 17.775 10.1325 17.4368 11.2848 16.7645C12.4329 16.0711 13.3723 15.0775 14.0987 13.7921C14.2072 13.5976 14.3074 13.3989 14.4035 13.196L15.0673 17.348H19L18.0022 11.7119V0.00845644L17.9981 0Z" fill="white"/>
</svg>
