<svg width="9" height="12" viewBox="0 0 9 12" fill="none" xmlns="http://www.w3.org/2000/svg">
<path d="M1.14723 8.60347C1.25824 8.60347 1.36926 8.63678 1.46382 8.69924C1.97364 8.98654 2.50405 9.23637 3.05087 9.4404C3.57302 9.64442 4.12394 9.75268 4.67898 9.76101C5.42726 9.76101 5.97408 9.6361 6.31944 9.3821C6.64013 9.16975 6.83336 8.80749 6.83336 8.42026C6.8457 8.1163 6.73057 7.82067 6.51678 7.60831C6.27009 7.38763 5.97815 7.22941 5.66157 7.14196C5.20931 7.00872 4.75301 6.90463 4.29253 6.82135C3.61415 6.7006 2.94393 6.53821 2.2861 6.33835C1.69406 6.14265 1.15955 5.80538 0.723742 5.35568C0.222148 4.82688 -0.0368715 4.1107 0.00424275 3.37787C-0.0286487 2.66169 0.1975 1.96217 0.641534 1.40005C1.06912 0.892064 1.62825 0.51732 2.2573 0.32162C2.91101 0.105101 3.5977 -0.00732259 4.28842 0.00100506C4.99969 -0.0114864 5.7068 0.092609 6.38518 0.304964C6.98134 0.504828 7.54463 0.792132 8.05445 1.15438C8.20246 1.25015 8.28882 1.41671 8.28059 1.59159C8.28471 1.69568 8.25183 1.80394 8.19015 1.88722L7.5899 2.71165C7.49534 2.85739 7.33087 2.94067 7.1623 2.92817C7.05129 2.93234 6.93616 2.89903 6.84571 2.83241C6.00287 2.30776 5.03666 2.02046 4.04581 2.0038C3.59355 1.99131 3.13719 2.08708 2.72194 2.27445C2.36836 2.41602 2.14218 2.76995 2.15451 3.15302C2.1504 3.46114 2.29026 3.75261 2.53283 3.93998C2.79185 4.14817 3.09194 4.3064 3.41263 4.398C3.75388 4.50626 4.20615 4.61452 4.76531 4.71862L5.11893 4.78108C5.75209 4.8935 6.37293 5.06005 6.98142 5.28074C7.52413 5.49725 8.00101 5.84285 8.37926 6.29255C8.81508 6.85466 9.03298 7.55835 8.99598 8.27036C8.99598 9.41125 8.60948 10.2773 7.84064 10.8728C7.07181 11.464 6.03168 11.7596 4.72014 11.7596C3.88963 11.7805 3.06315 11.6514 2.27376 11.3849C1.59948 11.1351 0.95815 10.7936 0.370216 10.3689C0.218093 10.2648 0.12349 10.09 0.12349 9.90258C0.127602 9.7735 0.164608 9.64859 0.230391 9.54033L0.695034 8.84081C0.789597 8.68258 0.966328 8.58681 1.14723 8.5993" fill="white"/>
</svg>
