<svg width="21" height="24" viewBox="0 0 21 24" fill="none" xmlns="http://www.w3.org/2000/svg">
<path d="M19.3396 10.188C18.6139 8.80254 17.5962 7.72968 16.2866 6.9736C14.9979 6.19641 13.5256 5.81204 11.874 5.81204C10.2224 5.81204 8.86275 6.18796 7.55315 6.94404C6.24355 7.70011 5.13415 8.7603 4.22911 10.1288C4.12484 10.2893 4.02475 10.4541 3.92883 10.623V0H0V23.5692H3.92883V19.1383C4.03727 19.3242 4.14567 19.5058 4.26245 19.6832C5.1675 21.0517 6.26858 22.1119 7.55733 22.868C8.86693 23.6241 10.3058 24 11.8782 24C13.5298 24 15.002 23.6241 16.2908 22.868C17.6004 22.0908 18.6181 21.0222 19.3438 19.6536C20.0695 18.2682 20.4323 16.6843 20.4323 14.9102C20.4323 13.1362 20.0695 11.5649 19.3438 10.1964L19.3396 10.188ZM15.7153 17.9599C15.2523 18.8596 14.5975 19.5607 13.7508 20.0718C12.925 20.5618 11.9866 20.8068 10.9398 20.8068C9.34655 20.8068 7.91598 20.2746 6.64809 19.2144C5.38019 18.1331 4.4126 16.6927 3.74529 14.8976C4.40843 13.1236 5.37602 11.6959 6.64809 10.6146C7.93684 9.53327 9.36741 8.99261 10.9398 8.99261C11.9866 8.99261 12.925 9.24604 13.7508 9.75713C14.5975 10.2471 15.2523 10.9398 15.7153 11.8395C16.1991 12.7392 16.441 13.7571 16.441 14.9018C16.441 16.0465 16.1991 17.0644 15.7153 17.9641V17.9599Z" fill="white"/>
</svg>
